<svg xmlns="http://www.w3.org/2000/svg" xmlns:xlink="http://www.w3.org/1999/xlink" width="95.209" height="89" viewBox="0 0 95.209 89"><defs><filter id="a" x="0" y="18.376" width="61.598" height="70.049" filterUnits="userSpaceOnUse"><feOffset dx="-5" dy="5" input="SourceAlpha"/><feGaussianBlur stdDeviation="4" result="b"/><feFlood flood-opacity="0.29"/><feComposite operator="in" in2="b"/><feComposite in="SourceGraphic"/></filter><filter id="c" x="29.18" y="18.184" width="61.598" height="70.049" filterUnits="userSpaceOnUse"><feOffset dx="-5" dy="5" input="SourceAlpha"/><feGaussianBlur stdDeviation="4" result="d"/><feFlood flood-opacity="0.29"/><feComposite operator="in" in2="d"/><feComposite in="SourceGraphic"/></filter><filter id="e" x="7.319" y="10.935" width="54.279" height="60.61" filterUnits="userSpaceOnUse"><feOffset dx="-5" dy="5" input="SourceAlpha"/><feGaussianBlur stdDeviation="4" result="f"/><feFlood flood-opacity="0.29"/><feComposite operator="in" in2="f"/><feComposite in="SourceGraphic"/></filter><filter id="g" x="29.18" y="10.791" width="54.279" height="60.61" filterUnits="userSpaceOnUse"><feOffset dx="-5" dy="5" input="SourceAlpha"/><feGaussianBlur stdDeviation="4" result="h"/><feFlood flood-opacity="0.29"/><feComposite operator="in" in2="h"/><feComposite in="SourceGraphic"/></filter></defs><g transform="translate(-785.791 -964)"><g transform="translate(7.86 -3.717)"><g transform="matrix(1, 0, 0, 1, 777.93, 967.72)" filter="url(#a)"><line x2="29.18" y2="37.631" transform="translate(21.21 29.59)" fill="none" stroke="#ff5b48" stroke-linecap="round" stroke-width="6"/></g><g transform="matrix(1, 0, 0, 1, 777.93, 967.72)" filter="url(#c)"><line x1="29.18" y2="37.631" transform="translate(50.39 29.39)" fill="none" stroke="#ff5b48" stroke-linecap="round" stroke-width="6"/></g><g transform="matrix(1, 0, 0, 1, 777.93, 967.72)" filter="url(#e)"><line x2="21.861" y2="28.192" transform="translate(28.53 22.14)" fill="none" stroke="#ff5b48" stroke-linecap="round" stroke-width="6"/></g><g transform="matrix(1, 0, 0, 1, 777.93, 967.72)" filter="url(#g)"><line x1="21.861" y2="28.192" transform="translate(50.39 22)" fill="none" stroke="#ff5b48" stroke-linecap="round" stroke-width="6"/></g></g><g transform="translate(792 964)" fill="none" stroke="#ff5b48" stroke-width="6"><circle cx="44.5" cy="44.5" r="44.5" stroke="none"/><circle cx="44.5" cy="44.5" r="41.5" fill="none"/></g></g></svg>