<svg xmlns="http://www.w3.org/2000/svg" xmlns:xlink="http://www.w3.org/1999/xlink" width="497.828" height="352" viewBox="0 0 497.828 352">
  <defs>
    <clipPath id="clip-path">
      <path id="Path_37" data-name="Path 37" d="M0-744.095H497.828v352H0Z"/>
    </clipPath>
  </defs>
  <g id="logo_large_color_dark" transform="translate(0 744.095)" clip-path="url(#clip-path)">
    <g id="Group_12" data-name="Group 12" transform="translate(243.357 -616.7)">
      <path id="Path_14" data-name="Path 14" d="M-26.744-16.15a7.341,7.341,0,0,0-6.08,3.322q-2.449,3.322-2.453,9.322t2.343,9.215a7.258,7.258,0,0,0,6.153,3.213A7.333,7.333,0,0,0-20.589,5.67q2.379-3.243,2.38-9.287t-2.457-9.29a7.37,7.37,0,0,0-6.079-3.243m-.037,39.79q-10.607,0-17.295-6.942T-50.753-3.576q0-13.335,6.756-20.2t17.444-6.868q10.683,0,17.251,6.761t6.572,20.46q0,13.705-6.722,20.392t-17.33,6.675" transform="translate(97.645 30.649)" fill="#eee"/>
      <path id="Path_15" data-name="Path 15" d="M-16.148-15.98V6.6a5.263,5.263,0,0,0,.229,2c.15.278.6.417,1.357.417a7.193,7.193,0,0,0,6.306-3.1q2.158-3.093,2.15-10.3t-2.224-9.4q-2.23-2.19-7.063-2.2Zm-14.5,35.041v-45.3a4.434,4.434,0,0,1,.945-2.99,3.1,3.1,0,0,1,2.455-1.094h12.61q12,0,18.23,6.046T9.83-5.254q0,27.789-23.714,27.787H-26.793q-3.848,0-3.852-3.472" transform="translate(132.227 31.002)" fill="#eee"/>
      <path id="Path_16" data-name="Path 16" d="M-26.747-16.15a7.343,7.343,0,0,0-6.083,3.322q-2.448,3.322-2.449,9.322t2.34,9.215a7.255,7.255,0,0,0,6.153,3.213A7.33,7.33,0,0,0-20.594,5.67q2.38-3.243,2.381-9.287t-2.455-9.29a7.374,7.374,0,0,0-6.079-3.243m-.039,39.79q-10.611,0-17.29-6.942T-50.759-3.576q0-13.335,6.755-20.2t17.447-6.868q10.685,0,17.253,6.761t6.569,20.46q0,13.705-6.722,20.392t-17.33,6.675" transform="translate(197.795 30.649)" fill="#eee"/>
      <path id="Path_17" data-name="Path 17" d="M-29.014-57.54q0,1.5-7.475,1.508t-7.477-1.508V-95.449h-9.059c-.857,0-1.461-1.155-1.812-3.477a25.022,25.022,0,0,1-.223-3.4,25.116,25.116,0,0,1,.223-3.4c.351-2.315.956-3.479,1.812-3.479h32.847c.855,0,1.457,1.164,1.814,3.479a25.67,25.67,0,0,1,.224,3.4,25.572,25.572,0,0,1-.224,3.4c-.356,2.321-.958,3.477-1.814,3.477h-8.836Z" transform="translate(252.217 109.872)" fill="#eee"/>
      <path id="Path_18" data-name="Path 18" d="M-37.359-28.4a52.729,52.729,0,0,0-8.717.785v7.934H-41.4l-.052,3.537q0,1.965-3.889,1.968a9.052,9.052,0,0,1-6.871-3.289q-2.988-3.29-2.982-9.623,0-6.349,2.906-9.367A10.061,10.061,0,0,1-44.7-39.479a13.9,13.9,0,0,1,4.077.643,9.626,9.626,0,0,1,2.834,1.2,2.187,2.187,0,0,0,1.359.568c.427,0,1.118-.5,2.073-1.508a13.438,13.438,0,0,0,2.571-4.566,14.934,14.934,0,0,0,1.13-4.723c0-1.1-.024-1.863-.073-2.265q-1.586-1.736-5.855-2.757A41.12,41.12,0,0,0-46.133-53.9q-11.631,0-18.2,7.324T-70.9-27.549q0,13.745,6.716,20.842T-46.509.387A48.225,48.225,0,0,0-36.055-.631a19.258,19.258,0,0,0,6.082-2.077l.3-23.629c0-1.373-3.624-2-7.689-2.066" transform="translate(70.898 53.902)" fill="#eee"/>
    </g>
    <g id="Group_13" data-name="Group 13" transform="translate(246.802 -552.786)">
      <path id="Path_19" data-name="Path 19" d="M-15.791-22.266A6.043,6.043,0,0,1-18.1-19.914a7.813,7.813,0,0,1-4.274,1.07,7.275,7.275,0,0,1-5.511-2.173,8.642,8.642,0,0,1-2.084-6.235v-6.766A8.675,8.675,0,0,1-28-40.13a6.859,6.859,0,0,1,5.265-2.125,6.967,6.967,0,0,1,4.986,1.681A6.426,6.426,0,0,1-15.9-35.89l-.029.089h-1.752a5.1,5.1,0,0,0-1.344-3.548,5.048,5.048,0,0,0-3.7-1.247,4.891,4.891,0,0,0-3.923,1.683,7.313,7.313,0,0,0-1.433,4.878v6.8a7.4,7.4,0,0,0,1.546,5.061,5.311,5.311,0,0,0,4.171,1.731,5.931,5.931,0,0,0,3.078-.691,3.831,3.831,0,0,0,1.611-1.679v-5.926H-22.4v-1.647h6.614Z" transform="translate(29.967 43.552)" fill="#ddd"/>
      <path id="Path_20" data-name="Path 20" d="M-5.136-17.66a4.529,4.529,0,0,0,2.772-.894A4.862,4.862,0,0,0-.652-20.842V-24.5h-3a4.284,4.284,0,0,0-3.067,1.085A3.529,3.529,0,0,0-7.87-20.729a3.325,3.325,0,0,0,.718,2.214,2.481,2.481,0,0,0,2.016.854M-.371-16.3c-.094-.586-.167-1.061-.213-1.434a9.67,9.67,0,0,1-.068-1.14A6.612,6.612,0,0,1-2.645-16.79a4.775,4.775,0,0,1-2.725.821,4.073,4.073,0,0,1-3.237-1.3A5.193,5.193,0,0,1-9.747-20.8a4.674,4.674,0,0,1,1.654-3.757,6.73,6.73,0,0,1,4.487-1.4H-.652v-2.077a4.123,4.123,0,0,0-.9-2.816A3.251,3.251,0,0,0-4.091-31.86a3.385,3.385,0,0,0-2.493.97,3.208,3.208,0,0,0-.974,2.374l-1.754-.015-.031-.092a4.38,4.38,0,0,1,1.45-3.4A5.325,5.325,0,0,1-4-33.514,5.153,5.153,0,0,1-.214-32.091,5.545,5.545,0,0,1,1.222-28V-19.7c0,.6.028,1.19.081,1.75A11.052,11.052,0,0,0,1.582-16.3Z" transform="translate(27.986 40.676)" fill="#ddd"/>
      <path id="Path_21" data-name="Path 21" d="M-1.845-.35l.161,2.624A5.393,5.393,0,0,1,.092.1,4.507,4.507,0,0,1,2.7-.664a3.8,3.8,0,0,1,2.576.9A5.29,5.29,0,0,1,6.814,2.958,6.189,6.189,0,0,1,8.586.3a4.169,4.169,0,0,1,2.771-.966,3.931,3.931,0,0,1,3.448,1.8,9.971,9.971,0,0,1,1.227,5.543v9.875H14.144V6.646A8.321,8.321,0,0,0,13.3,2.274,2.727,2.727,0,0,0,10.893,1.01a2.9,2.9,0,0,0-2.564,1.4A7.755,7.755,0,0,0,7.2,5.944v10.61H5.324v-9.9A8.112,8.112,0,0,0,4.46,2.318,2.742,2.742,0,0,0,2.046,1.023a3.232,3.232,0,0,0-2.382.9A5.144,5.144,0,0,0-1.625,4.384v12.17H-3.5V-.35Z" transform="translate(36.944 7.826)" fill="#ddd"/>
      <path id="Path_22" data-name="Path 22" d="M-6.615-1.843a3.425,3.425,0,0,0-2.9,1.606,6.969,6.969,0,0,0-1.18,3.975h7.8V3.015A5.859,5.859,0,0,0-3.878-.463a3.173,3.173,0,0,0-2.737-1.38m.266,15.891a5.59,5.59,0,0,1-4.471-2.055,7.847,7.847,0,0,1-1.733-5.244V3.941a8.128,8.128,0,0,1,1.74-5.327A5.275,5.275,0,0,1-6.615-3.5,4.919,4.919,0,0,1-2.492-1.61,8.067,8.067,0,0,1-1.02,3.475V5.33h-9.674V6.736a6.836,6.836,0,0,0,1.172,4.086,3.7,3.7,0,0,0,3.173,1.631,5.527,5.527,0,0,0,2.4-.484,4.944,4.944,0,0,0,1.724-1.392l.768,1.33a5.527,5.527,0,0,1-1.979,1.558,6.7,6.7,0,0,1-2.913.584" transform="translate(68.969 10.66)" fill="#ddd"/>
      <path id="Path_23" data-name="Path 23" d="M-6.619-1.843a3.427,3.427,0,0,0-2.9,1.606A7.024,7.024,0,0,0-10.7,3.739h7.8V3.015A5.832,5.832,0,0,0-3.887-.463a3.162,3.162,0,0,0-2.732-1.38m.264,15.891a5.578,5.578,0,0,1-4.467-2.055,7.826,7.826,0,0,1-1.739-5.244V3.941a8.143,8.143,0,0,1,1.74-5.327A5.287,5.287,0,0,1-6.619-3.5,4.919,4.919,0,0,1-2.5-1.61,8.087,8.087,0,0,1-1.027,3.475V5.33H-10.7V6.736a6.806,6.806,0,0,0,1.177,4.086,3.687,3.687,0,0,0,3.169,1.631,5.5,5.5,0,0,0,2.4-.484,4.993,4.993,0,0,0,1.732-1.392l.763,1.33a5.521,5.521,0,0,1-1.979,1.558,6.7,6.7,0,0,1-2.913.584" transform="translate(89.823 10.66)" fill="#ddd"/>
      <path id="Path_24" data-name="Path 24" d="M-1.865-.35l.154,2.794A5.587,5.587,0,0,1,.082.147,4.337,4.337,0,0,1,2.7-.664,4,4,0,0,1,6.17,1.016,8.971,8.971,0,0,1,7.384,6.241V16.554H5.495V6.258A7.229,7.229,0,0,0,4.649,2.2,2.828,2.828,0,0,0,2.2,1.023a3.3,3.3,0,0,0-2.41.946A5.763,5.763,0,0,0-1.664,4.488V16.554H-3.54V-.35Z" transform="translate(95.616 7.826)" fill="#ddd"/>
      <path id="Path_25" data-name="Path 25" d="M-2.111-11.413a7.436,7.436,0,0,0,.984,4.1,3.274,3.274,0,0,0,2.967,1.53,3.584,3.584,0,0,0,2.3-.736A5.034,5.034,0,0,0,5.622-8.582v-8.374a5.755,5.755,0,0,0-1.443-2.188,3.309,3.309,0,0,0-2.306-.828,3.232,3.232,0,0,0-2.983,1.73,8.98,8.98,0,0,0-1,4.519Zm-1.895-2.31a10.2,10.2,0,0,1,1.456-5.77A4.579,4.579,0,0,1,1.466-21.66a4.464,4.464,0,0,1,2.493.7,5.39,5.39,0,0,1,1.775,1.97l.183-2.352H7.51v16.92A7.55,7.55,0,0,1,6,.607,5.353,5.353,0,0,1,1.7,2.39,8.435,8.435,0,0,1-.449,2.083a8.7,8.7,0,0,1-2.041-.8l.519-1.647A6.274,6.274,0,0,0-.267.4,6.75,6.75,0,0,0,1.669.67,3.484,3.484,0,0,0,4.652-.622a6.312,6.312,0,0,0,.97-3.8V-6.47A5.121,5.121,0,0,1,3.856-4.722a4.732,4.732,0,0,1-2.422.608A4.655,4.655,0,0,1-2.558-6.108a8.84,8.84,0,0,1-1.447-5.305Z" transform="translate(110.615 28.822)" fill="#ddd"/>
      <path id="Path_26" data-name="Path 26" d="M782.67-315.3h-1.893v-16.9h1.893Zm0-21.717h-1.893v-2.663h1.893Z" transform="translate(-658.227 339.685)" fill="#ddd"/>
      <path id="Path_27" data-name="Path 27" d="M-1.865-.35l.154,2.794A5.6,5.6,0,0,1,.08.147,4.361,4.361,0,0,1,2.7-.664,4.019,4.019,0,0,1,6.176,1.016,8.99,8.99,0,0,1,7.385,6.241V16.554H5.5V6.258A7.243,7.243,0,0,0,4.652,2.2,2.833,2.833,0,0,0,2.2,1.023a3.293,3.293,0,0,0-2.407.946A5.762,5.762,0,0,0-1.66,4.488V16.554H-3.539V-.35Z" transform="translate(132.417 7.826)" fill="#ddd"/>
      <path id="Path_28" data-name="Path 28" d="M-6.612-1.843A3.416,3.416,0,0,0-9.51-.237a7.005,7.005,0,0,0-1.182,3.975h7.8V3.015A5.84,5.84,0,0,0-3.876-.463a3.165,3.165,0,0,0-2.735-1.38m.268,15.891a5.57,5.57,0,0,1-4.468-2.055,7.834,7.834,0,0,1-1.736-5.244V3.941a8.127,8.127,0,0,1,1.739-5.327A5.277,5.277,0,0,1-6.612-3.5,4.931,4.931,0,0,1-2.484-1.61,8.09,8.09,0,0,1-1.016,3.475V5.33h-9.677V6.736a6.832,6.832,0,0,0,1.175,4.086,3.7,3.7,0,0,0,3.174,1.631,5.488,5.488,0,0,0,2.393-.484,4.961,4.961,0,0,0,1.733-1.392l.767,1.33a5.569,5.569,0,0,1-1.981,1.558,6.692,6.692,0,0,1-2.912.584" transform="translate(155.823 10.66)" fill="#ddd"/>
    </g>
    <path id="Path_29" data-name="Path 29" d="M-145.818-1.472s-.217-1.334-.344-1.322l-24.2,2.335a3.933,3.933,0,0,0-3.556,3.651l-.665,9.529L-193.3,14.056l-1.273-8.636a3.967,3.967,0,0,0-3.9-3.369H-224.02a3.967,3.967,0,0,0-3.9,3.369l-1.274,8.636-18.721-1.336-.665-9.529A3.933,3.933,0,0,0-252.138-.46L-276.35-2.794c-.125-.012-.217,1.323-.342,1.323l-.033,5.237,20.5,3.307.671,9.614a3.964,3.964,0,0,0,3.654,3.66l25.783,1.839c.1.007.194.011.29.011a3.964,3.964,0,0,0,3.9-3.369l1.31-8.886h18.73l1.31,8.886a3.966,3.966,0,0,0,3.9,3.369c.095,0,.19,0,.283-.01l25.787-1.839a3.965,3.965,0,0,0,3.654-3.66l.671-9.614,20.5-3.321Z" transform="translate(351.675 -555.759)" fill="#fff"/>
    <path id="Path_30" data-name="Path 30" d="M-10.148-62.733v39.488c.072,0,.144,0,.216.01L14.277-20.9a2.607,2.607,0,0,1,2.35,2.414L17.373-7.8,38.491-6.294l1.455-9.863a2.606,2.606,0,0,1,2.579-2.226H68.065a2.606,2.606,0,0,1,2.578,2.226L72.1-6.294,93.216-7.8l.746-10.686a2.608,2.608,0,0,1,2.35-2.414l24.2-2.334c.072-.007.143-.009.215-.01V-26.4l.01,0V-62.733a142.54,142.54,0,0,0,9.11-13.008,101.242,101.242,0,0,0-13.36-17.511,130.62,130.62,0,0,0-13.261,7.714,68.854,68.854,0,0,0-6.813-5.6A81.822,81.822,0,0,0,89.091-95.9a151.139,151.139,0,0,0,1.235-16.351,84.986,84.986,0,0,0-19.869-6.8,141.42,141.42,0,0,0-7.376,14.365,50.446,50.446,0,0,0-7.736-.619v0c-.018,0-.035,0-.05,0s-.033,0-.049,0v0a50.449,50.449,0,0,0-7.74.619,140.347,140.347,0,0,0-7.377-14.365,85,85,0,0,0-19.866,6.8A150.464,150.464,0,0,0,21.5-95.9a81.282,81.282,0,0,0-7.323,4.761,69.34,69.34,0,0,0-6.814,5.6A130.476,130.476,0,0,0-5.9-93.251,101.3,101.3,0,0,0-19.257-75.74a149.4,149.4,0,0,0,9.11,13.008Z" transform="translate(85.131 -533.987)" fill="#478cbf"/>
    <path id="Path_31" data-name="Path 31" d="M-121.634-2.338l-.75,10.743a2.607,2.607,0,0,1-2.415,2.418l-25.786,1.84c-.063,0-.126.007-.188.007a2.607,2.607,0,0,1-2.576-2.227L-154.828.415h-21.04l-1.479,10.028a2.605,2.605,0,0,1-2.764,2.22l-25.786-1.84a2.607,2.607,0,0,1-2.415-2.418l-.75-10.743-21.768-2.1c.01,2.34.04,4.9.04,5.413,0,22.99,29.164,34.04,65.4,34.167h.089C-129.07,35.016-99.916,23.966-99.916.976c0-.52.031-3.072.042-5.413Z" transform="translate(305.774 -547.572)" fill="#478cbf"/>
    <path id="Path_32" data-name="Path 32" d="M-32.5-16.242A14.587,14.587,0,0,1-47.088-1.652a14.588,14.588,0,0,1-14.587-14.59A14.584,14.584,0,0,1-47.088-30.824,14.583,14.583,0,0,1-32.5-16.242" transform="translate(153.196 -564.448)" fill="#fff"/>
    <path id="Path_33" data-name="Path 33" d="M-21.574-10.787a9.68,9.68,0,0,1-9.684,9.68,9.682,9.682,0,0,1-9.684-9.68,9.685,9.685,0,0,1,9.684-9.684,9.683,9.683,0,0,1,9.684,9.684" transform="translate(138.76 -569.038)" fill="#414042"/>
    <path id="Path_34" data-name="Path 34" d="M-5.231-24.468a4.5,4.5,0,0,1-4.7-4.268v-13.43a4.5,4.5,0,0,1,4.7-4.268,4.5,4.5,0,0,1,4.7,4.268v13.43a4.5,4.5,0,0,1-4.7,4.268" transform="translate(145.655 -540.304)" fill="#fff"/>
    <path id="Path_35" data-name="Path 35" d="M0-16.242A14.588,14.588,0,0,0,14.59-1.652a14.588,14.588,0,0,0,14.586-14.59A14.584,14.584,0,0,0,14.59-30.824,14.584,14.584,0,0,0,0-16.242" transform="translate(160.154 -564.448)" fill="#fff"/>
    <path id="Path_36" data-name="Path 36" d="M0-10.787a9.678,9.678,0,0,0,9.678,9.68,9.679,9.679,0,0,0,9.684-9.68,9.683,9.683,0,0,0-9.684-9.684A9.681,9.681,0,0,0,0-10.787" transform="translate(163.665 -569.038)" fill="#414042"/>
  </g>
</svg>
