<?xml version="1.0" encoding="UTF-8"?><svg xmlns="http://www.w3.org/2000/svg" viewBox="0 0 705.11 941.45"><defs><style>.cls-1{fill:#939393;}.cls-2,.cls-3,.cls-4,.cls-5,.cls-6,.cls-7,.cls-8,.cls-9,.cls-10,.cls-11,.cls-12,.cls-13,.cls-14,.cls-15,.cls-16,.cls-17,.cls-18,.cls-19,.cls-20,.cls-21,.cls-22,.cls-23,.cls-24,.cls-25,.cls-26,.cls-27,.cls-28,.cls-29,.cls-30,.cls-31,.cls-32,.cls-33,.cls-34,.cls-35,.cls-36{stroke-miterlimit:10;}.cls-2,.cls-3,.cls-4,.cls-5,.cls-6,.cls-7,.cls-8,.cls-9,.cls-10,.cls-12,.cls-13,.cls-14,.cls-16,.cls-17,.cls-18,.cls-19,.cls-20,.cls-21,.cls-22,.cls-24,.cls-25,.cls-26,.cls-27,.cls-28,.cls-29,.cls-30,.cls-31,.cls-32,.cls-33,.cls-34,.cls-35{stroke:#231f20;}.cls-2,.cls-11,.cls-13,.cls-14,.cls-15,.cls-16,.cls-19,.cls-22,.cls-23,.cls-28,.cls-32,.cls-33,.cls-34,.cls-35,.cls-36{fill:none;}.cls-3,.cls-4,.cls-5,.cls-6,.cls-7,.cls-8,.cls-9,.cls-11,.cls-12,.cls-15,.cls-17,.cls-18,.cls-20,.cls-21,.cls-22,.cls-23,.cls-24,.cls-25,.cls-26,.cls-27,.cls-29,.cls-30,.cls-31,.cls-33,.cls-36{stroke-width:.5px;}.cls-3,.cls-5{fill:#d1d3d4;}.cls-37,.cls-8{fill:#f15822;}.cls-38{opacity:.18;}.cls-38,.cls-39,.cls-40,.cls-41,.cls-42,.cls-43,.cls-44,.cls-45,.cls-46,.cls-47,.cls-48{fill:#020202;}.cls-4,.cls-10{fill:#fff;}.cls-5,.cls-7,.cls-14,.cls-16,.cls-18,.cls-22,.cls-32,.cls-34{stroke-linecap:round;}.cls-6{fill:#e2a693;}.cls-49,.cls-29{fill:#a7a9ac;}.cls-50{fill:#416ab2;}.cls-51,.cls-25{fill:#939598;}.cls-7,.cls-12,.cls-52{fill:#6d6e71;}.cls-39,.cls-53{opacity:.15;}.cls-9{fill:#febe12;}.cls-11{stroke:#fff200;}.cls-54{fill:#ee2924;}.cls-55,.cls-24{fill:#be1e2d;}.cls-56,.cls-48{opacity:.33;}.cls-40{opacity:.32;}.cls-57{fill:#2c3581;}.cls-13,.cls-34{stroke-width:3px;}.cls-14,.cls-28{stroke-width:4px;}.cls-41{opacity:.48;}.cls-15{stroke:#be1e2d;}.cls-42{opacity:.12;}.cls-17{fill:#ef4136;}.cls-43{opacity:.38;}.cls-18,.cls-58{fill:#f3bd94;}.cls-59{fill:#2e3192;}.cls-60{fill:#134a7f;}.cls-19,.cls-32{stroke-width:2px;}.cls-20{fill:#ce998a;}.cls-21{fill:#ed196f;}.cls-61{opacity:.24;}.cls-61,.cls-62{fill:#0c304c;}.cls-44{opacity:.25;}.cls-63{fill:#4b2815;}.cls-23{stroke:#ed1c24;}.cls-45{opacity:.36;}.cls-64{opacity:.16;}.cls-26,.cls-65{fill:#808285;}.cls-66{fill:#d3202f;}.cls-27{fill:#bcbec0;}.cls-67{fill:#fff200;}.cls-30,.cls-68{fill:#58595b;}.cls-46{opacity:.27;}.cls-31,.cls-69{fill:#414042;}.cls-70,.cls-71{opacity:.5;}.cls-70,.cls-72{fill:#7f182b;}.cls-71{fill:#fdfefe;}.cls-73{fill:#ed1c24;}.cls-74{fill:#91bfe5;}.cls-75{fill:#00a651;}.cls-76{fill:#fec10f;}.cls-47{opacity:.19;}.cls-77{fill:#ed1f24;}.cls-78{fill:#231f20;}.cls-79{fill:#9b3221;}.cls-80{fill:#272828;}.cls-35{stroke-width:.75px;}.cls-36{stroke:#8dc63f;}</style></defs><g id="Fill"><polyline class="cls-76" points="263.5 370.37 493.92 370.96 504.41 422.13 505.92 467.06 501.62 518.28 482.43 580.25 452.8 603.57 452.85 445.11 437.11 427.24 401.09 426.47 393.86 414.77 383.64 411.04 370.38 416.32 367.76 427.24 326.06 427.24 308.8 437.45 307.68 568.87 294.62 576.47 286.19 592.94 283.9 594.09 259.92 573.02 247.2 508.98 248.05 434.68"/><polyline class="cls-69" points="307.76 450.69 307.76 569.96 323.48 573.74 332.71 589.61 350.97 585.08 345.83 573.74 340.24 573.74 340.03 567.62 344.37 567.62"/><polyline class="cls-69" points="347.79 544.77 358.58 531.95 377.73 521.96 372.52 518.21 377.54 514.3 387.43 519.02 388.8 521.4 405.73 516.12 410.03 517.48 402.6 525.66 415.83 529.07 428.12 541.22 426.81 445.11 307.82 445.11 308.93 474.02 310.89 535.4 348.43 584.13"/><line class="cls-33" x1="494.04" y1="369.53" x2="263.63" y2="368.86"/><path class="cls-33" d="M377.93,473.95c-.13,.33-.26,.67-.39,1.02"/><path class="cls-33" d="M381.37,464.56c-.56,1.54-1.38,3.84-2.43,6.67"/><path class="cls-25" d="M404.34,449.7v21.53h3.62v2.72h-3.62v22.6h38.05v-46.85h-38.05Zm19.62,22.81c0,4.39-3.56,7.95-7.96,7.95s-7.95-3.56-7.95-7.95,3.56-7.96,7.95-7.96,7.96,3.56,7.96,7.96Zm-17.8-20.1c-.54,0-.99-.44-.99-.99s.45-.99,.99-.99,.99,.44,.99,.99-.44,.99-.99,.99Zm.82,2.67c0-.81,.33-1.53,.86-2.06,.53-.53,1.25-.85,2.06-.85h8.64c1.61,0,2.91,1.3,2.91,2.91,0,.81-.32,1.53-.85,2.06-.53,.53-1.25,.86-2.06,.86h-8.64c-1.61,0-2.92-1.31-2.92-2.92Zm-1.11,40.62c-.54,0-.98-.44-.98-.99s.44-.99,.98-.99,.99,.45,.99,.99-.44,.99-.99,.99Zm22.99-1.19h-21.45v-.13c0-1.16,.94-2.11,2.11-2.11h17.11c1.23,0,2.23,1,2.23,2.23h0Zm0-3.58h-21.45v-.13c0-1.16,.94-2.11,2.11-2.11h17.11c1.23,0,2.23,1,2.23,2.22v.02Zm0-3.6h-21.45v-.12c0-1.16,.94-2.11,2.11-2.11h17.11c1.23,0,2.23,1,2.23,2.22h0Zm3.25-1.25c-.82,0-1.49-.67-1.49-1.49s.67-1.49,1.49-1.49,1.49,.67,1.49,1.49-.67,1.49-1.49,1.49Zm0-5.38c-.82,0-1.49-.67-1.49-1.49s.67-1.49,1.49-1.49,1.49,.67,1.49,1.49-.67,1.49-1.49,1.49Zm0-5.38c-.82,0-1.49-.66-1.49-1.49s.67-1.49,1.49-1.49,1.49,.67,1.49,1.49-.67,1.49-1.49,1.49Zm0-5.37c-.82,0-1.49-.67-1.49-1.49s.67-1.49,1.49-1.49,1.49,.66,1.49,1.49-.67,1.49-1.49,1.49Zm0-5.38c-.82,0-1.49-.67-1.49-1.49s.67-1.49,1.49-1.49,1.49,.67,1.49,1.49-.67,1.49-1.49,1.49Zm0-5.38c-.82,0-1.49-.67-1.49-1.49s.67-1.49,1.49-1.49,1.49,.67,1.49,1.49-.67,1.49-1.49,1.49Zm5,30.74c-.82,0-1.49-.67-1.49-1.49s.67-1.49,1.49-1.49,1.49,.67,1.49,1.49-.67,1.49-1.49,1.49Zm0-5.6c-.82,0-1.49-.66-1.49-1.49s.67-1.48,1.49-1.48,1.49,.66,1.49,1.48-.67,1.49-1.49,1.49Zm0-5.59c-.82,0-1.49-.67-1.49-1.49s.67-1.49,1.49-1.49,1.49,.67,1.49,1.49-.67,1.49-1.49,1.49Zm0-5.6c-.82,0-1.49-.66-1.49-1.49s.67-1.49,1.49-1.49,1.49,.67,1.49,1.49-.67,1.49-1.49,1.49Zm0-5.59c-.82,0-1.49-.67-1.49-1.49s.67-1.49,1.49-1.49,1.49,.67,1.49,1.49-.67,1.49-1.49,1.49Zm0-5.6c-.82,0-1.49-.67-1.49-1.49s.67-1.49,1.49-1.49,1.49,.67,1.49,1.49-.67,1.49-1.49,1.49Zm0-5.36c-.82,0-1.49-.67-1.49-1.49s.67-1.49,1.49-1.49,1.49,.67,1.49,1.49-.67,1.49-1.49,1.49Zm1.99-4.9c0-.55,.44-.99,.99-.99s.99,.44,.99,.99-.44,.99-.99,.99-.99-.44-.99-.99Zm1.35,44.02c-.54,0-.99-.45-.99-.99s.45-.99,.99-.99,.99,.44,.99,.99-.44,.99-.99,.99Z"/><path class="cls-33" d="M406.86,494.71c0,.55-.44,.99-.99,.99s-.98-.44-.98-.99,.44-.99,.98-.99,.99,.45,.99,.99Z"/><path class="cls-33" d="M405.17,451.42c0-.55,.45-.99,.99-.99s.99,.44,.99,.99-.44,.99-.99,.99-.99-.44-.99-.99Z"/><rect class="cls-33" x="404.34" y="471.23" width="3.62" height="2.72"/><path class="cls-33" d="M406.98,455.08c0-.81,.33-1.53,.86-2.06,.53-.53,1.25-.85,2.06-.85h8.64c1.61,0,2.91,1.3,2.91,2.91,0,.81-.32,1.53-.85,2.06-.53,.53-1.25,.86-2.06,.86h-8.64c-1.61,0-2.92-1.31-2.92-2.92Z"/><path class="cls-33" d="M428.86,487.31h0s-21.45,.01-21.45,.01v-.12c0-1.16,.94-2.11,2.11-2.11h17.11c1.23,0,2.23,1,2.23,2.22Z"/><path class="cls-33" d="M428.86,490.9v.02h-21.45v-.13c0-1.16,.94-2.11,2.11-2.11h17.11c1.23,0,2.23,1,2.23,2.22Z"/><path class="cls-33" d="M428.86,494.5h0s-21.45,.01-21.45,.01v-.13c0-1.16,.94-2.11,2.11-2.11h17.11c1.23,0,2.23,1,2.23,2.23Z"/><path class="cls-33" d="M416,464.55c4.4,0,7.96,3.56,7.96,7.96s-3.56,7.95-7.96,7.95-7.95-3.56-7.95-7.95,3.56-7.96,7.95-7.96Z"/><circle class="cls-33" cx="432.11" cy="479.19" r="1.49"/><path class="cls-33" d="M433.6,463.06c0,.82-.67,1.49-1.49,1.49s-1.49-.67-1.49-1.49,.67-1.49,1.49-1.49,1.49,.67,1.49,1.49Z"/><path class="cls-33" d="M433.6,457.68c0,.82-.67,1.49-1.49,1.49s-1.49-.67-1.49-1.49,.67-1.49,1.49-1.49,1.49,.67,1.49,1.49Z"/><path class="cls-33" d="M433.6,473.81c0,.83-.67,1.49-1.49,1.49s-1.49-.66-1.49-1.49,.67-1.49,1.49-1.49,1.49,.67,1.49,1.49Z"/><circle class="cls-33" cx="432.11" cy="468.44" r="1.49"/><circle class="cls-33" cx="432.11" cy="484.57" r="1.49"/><path class="cls-33" d="M438.6,477.23c0,.82-.67,1.49-1.49,1.49s-1.49-.67-1.49-1.49,.67-1.49,1.49-1.49,1.49,.67,1.49,1.49Z"/><path class="cls-33" d="M438.6,488.42c0,.82-.67,1.49-1.49,1.49s-1.49-.67-1.49-1.49,.67-1.49,1.49-1.49,1.49,.67,1.49,1.49Z"/><circle class="cls-33" cx="437.11" cy="460.44" r="1.49"/><path class="cls-33" d="M438.6,482.82c0,.83-.67,1.49-1.49,1.49s-1.49-.66-1.49-1.49,.67-1.48,1.49-1.48,1.49,.66,1.49,1.48Z"/><circle class="cls-33" cx="437.11" cy="471.63" r="1.49"/><circle class="cls-33" cx="437.11" cy="466.04" r="1.49"/><circle class="cls-33" cx="437.11" cy="455.08" r="1.49"/><path class="cls-33" d="M440.09,452.66c-.55,0-.99-.44-.99-.99s.44-.99,.99-.99,.99,.44,.99,.99-.44,.99-.99,.99Z"/><circle class="cls-33" cx="440.45" cy="494.7" r=".99"/><rect class="cls-30" x="384.69" y="475.57" width="5.74" height="2.89"/><rect class="cls-30" x="384.69" y="467.06" width="5.74" height="2.72"/><rect class="cls-25" x="384.69" y="469.78" width="5.74" height="1.45"/><path class="cls-33" d="M261.49,576.85c-.14-.42-.28-.84-.42-1.29-8.96-27.78-30.28-107.03,.42-200.42,.7-2.11,1.41-4.21,2.14-6.28h.01c3.25-9.29,6.85-18.15,10.72-26.59"/><polyline class="cls-33" points="388.64 207.65 388.64 173.95 388.64 172.59"/><path class="cls-21" d="M408.05,154.55c0,10.71-8.69,19.4-19.41,19.4s-19.4-8.69-19.4-19.4,8.69-19.41,19.4-19.41,19.41,8.69,19.41,19.41Z"/><ellipse class="cls-33" cx="386.64" cy="289.1" rx="29.64" ry="45.45"/><line class="cls-33" x1="487.16" y1="342.46" x2="485.85" y2="342.46"/><line class="cls-33" x1="274.36" y1="342.27" x2="274.06" y2="342.27"/><path class="cls-33" d="M484.19,730.04c-16.74,28.8-29.62,49.21-29.62,49.21l8.97-85.06"/><path class="cls-76" d="M485.66,341.95c-26.81-70.52-72.37-113.96-97.02-134.3-19.96,13.4-78.29,55.77-114.28,134.62l211.49,.19c-.06-.17-.13-.34-.19-.51Zm-99.02-7.4c-16.37,0-29.64-20.35-29.64-45.45s13.27-45.45,29.64-45.45,29.64,20.35,29.64,45.45-13.27,45.45-29.64,45.45Z"/><path class="cls-33" d="M496.82,707.88c15.21-27.27,28.42-53.57,28.42-62.61,0-10.09-10.7-26.34-21.41-40.08-10.7-13.73-21.4-24.94-21.4-24.94,10.21-25.97,45.86-125.62,3.42-237.79"/><path class="cls-8" d="M500.23,777.36h50.45v12.77h-50.08c-3.08,0-5.58-2.5-5.58-5.58v-1.98c0-2.87,2.33-5.2,5.2-5.2Z" transform="translate(-12.77 8.67) rotate(-.94)"/><line class="cls-33" x1="552.04" y1="783.6" x2="601.83" y2="783.6"/><path class="cls-22" d="M373.43,427.24c0-5.64,4.57-10.22,10.21-10.22s10.22,4.58,10.22,10.22"/><line class="cls-22" x1="376.35" y1="434.22" x2="390.32" y2="420.26"/><path class="cls-33" d="M373.43,427.24c0,5.64,4.57,10.21,10.21,10.21s10.22-4.57,10.22-10.21m5.67,0c.01-.1,.01-.21,.01-.31,0-8.77-7.12-15.89-15.9-15.89s-15.89,7.12-15.89,15.89c0,.1,0,.21,.01,.31"/><path class="cls-33" d="M348.68,577.23c-.62-2.05-6.88-23.82,2.68-38.17,10.29-15.44,26.01-16.52,27.83-16.6"/><line class="cls-33" x1="222.51" y1="755.06" x2="222.51" y2="785.19"/><line class="cls-33" x1="85.49" y1="783.81" x2="223.7" y2="783.81"/><line class="cls-33" x1="86.51" y1="755.91" x2="86.51" y2="785.19"/><polyline class="cls-33" points="85.04 755.91 164.57 755.91 188.14 755.91 223.71 755.91"/><line class="cls-33" x1="86.15" y1="783.96" x2="71.34" y2="777.4"/><line class="cls-33" x1="71.92" y1="748.81" x2="72.1" y2="778.68"/><polyline class="cls-22" points="71.93 749.47 72.58 749.47 73.14 749.49 73.64 749.49 94.45 749.77"/><polyline class="cls-22" points="215.99 750.25 209.72 750.22 209.71 750.22"/><line class="cls-72" x1="173.97" y1="750.05" x2="111.86" y2="749.74"/><line class="cls-33" x1="209.15" y1="719.57" x2="63.81" y2="717.79"/><path class="cls-33" d="M169.48,767.59c1.18-2.65,3.84-4.49,6.93-4.49,4.19,0,7.59,3.4,7.59,7.6s-3.4,7.59-7.59,7.59c-2.41,0-4.56-1.12-5.95-2.87m5.82-8.74c-2.29,0-4.15,1.85-4.15,4.14s1.86,4.15,4.15,4.15,4.15-1.85,4.15-4.15-1.86-4.14-4.15-4.14Z"/><path class="cls-33" d="M180.43,770.82c0,2.3-1.86,4.15-4.15,4.15s-4.15-1.85-4.15-4.15,1.86-4.14,4.15-4.14,4.15,1.85,4.15,4.14Z"/><path class="cls-33" d="M180.43,770.82c0,2.3-1.86,4.15-4.15,4.15s-4.15-1.85-4.15-4.15,1.86-4.14,4.15-4.14,4.15,1.85,4.15,4.14Z"/><line class="cls-22" x1="169.48" y1="767.59" x2="132.3" y2="767.59"/><path class="cls-22" d="M170.49,775.43h-38.19c-.56,1.01-2.31,3.12-5.7,4.23-5.02,1.65-10.17-.53-12.43-5.79,3.72-.02,6.74,.02,10.46,0-.04-3.13-.04-3.15-.09-6.28-3.85,.04-7.03-.04-10.88,0,1.51-4.49,4.26-6.36,9.02-6.31s8,1.11,9.62,5.91"/><line class="cls-33" x1="71.26" y1="777.37" x2="86.07" y2="783.92"/><line class="cls-33" x1="85.75" y1="755.93" x2="70.94" y2="749.37"/><line class="cls-33" x1="72.12" y1="749.9" x2="80.6" y2="741.53"/><line class="cls-33" x1="57.75" y1="724.78" x2="65.47" y2="716.95"/><line class="cls-33" x1="57.74" y1="723.57" x2="71.93" y2="749.53"/><line class="cls-33" x1="65.01" y1="717.31" x2="78.74" y2="741.96"/><line class="cls-33" x1="203.72" y1="724.82" x2="217.46" y2="749.47"/><line class="cls-33" x1="69.32" y1="724.43" x2="205.92" y2="725.67"/><line class="cls-33" x1="216.89" y1="749.36" x2="222.51" y2="755.06"/><line class="cls-33" x1="208.98" y1="718.68" x2="221.91" y2="742.81"/><line class="cls-33" x1="220.55" y1="741.36" x2="218.51" y2="749.9"/><line class="cls-33" x1="208.81" y1="720.26" x2="204.98" y2="725.66"/><path class="cls-33" d="M261.91,574.81s-51.92,46.18-53.19,60.77c-2.89,33.32,23.18,94.4,57.53,146.3"/><path class="cls-78" d="M422.2,587.45c-.09,.22-.43,.27-.47,.52-.02,.26-.17,.44-.28,.64-.23,.25-.75,1.08-1.04,1.05-.02-.02-.03-.06-.02-.09,.29-.64,.5-1.35,1.1-1.76,.21-.14,.13-.47,.3-.63,.18-.2,.52,.03,.41,.27h0Z"/><path class="cls-33" d="M428.12,541.23h0c-.59-.97-1.25-1.91-1.98-2.85-1.71-2.19-3.82-4.38-6.35-6.85-3.02-2.94-6.36-4.66-9.29-5.69-5.16-1.81-9.07-1.48-7.81-1.84,5.48-1.6,7.34-6.52,7.34-6.52,0,0-6.13-2.55-10.79-1.14-2.89,.87-8.12,4.19-9.67,5.2-.26,.16-.59,.1-.77-.14-.99-1.31-4.1-5.24-6.92-6.47-.74-.32-1.55-.47-2.36-.47-2.94,0-6.04,1.85-7,3.75-1.24,2.42-.56-1.24,6.59,3.87"/><path class="cls-78" d="M428.17,576.22c-.14,.42-.56,.73-.65,1.17-.3,1.31-1.06,2.45-1.71,3.6-.05,.08-.19,.02-.15-.07,.45-1.26,.8-2.56,1.59-3.65,.28-.36,.23-.86,.45-1.24,.13-.28,.56-.1,.46,.18h0Z"/><path class="cls-69" d="M439.11,564.93v11.19h-11.17c1.49-3.69,2.77-8.02,3.41-12.94l4.21,.57c-.05,.33-.07,.66-.07,.97v.21h3.62Z"/><path class="cls-33" d="M308.93,569.95v-123.44c0-10.64,8.63-19.27,19.27-19.27h39.17"/><g><path class="cls-51" d="M446.41,594.8v8.77h-5.98c-.44-.29-.88-.57-1.32-.85v-7.92h7.3Z"/><path class="cls-78" d="M446.58,594.63c.04,3.05,.08,6.13,.07,9.2h-.25s-5.98,0-5.98,0c-.06,0-.08,0-.14-.04,0,0-1.32-.85-1.32-.85-.13-.09-.12-.04-.12-.21,0-1.97,.02-5.95,.07-7.92,0,0,0-.19,0-.19h.18c2.15,.03,5.29,.01,7.48,.01h0Zm-.35,.35c-2.11,.02-5.04-.04-7.12,0l.18-.18c.04,1.97,.07,5.95,.07,7.92,0,0-.12-.21-.12-.21l1.32,.85-.14-.04h5.98l-.25,.25c0-2.86,.03-5.71,.07-8.59h0Z"/></g><rect class="cls-69" x="446.41" y="594.8" width="5.88" height="8.77"/><path class="cls-78" d="M308.83,595.03c36.02-14.32,78.88-14.5,115.02-.46,.13,.05,.19,.2,.14,.33-.05,.13-.2,.19-.33,.14-4.52-1.83-9.11-3.55-13.84-4.81-22.87-6.29-49.36-7.04-72.69-2.9-9.61,1.8-19.01,4.61-28.12,8.17-.13,.05-.27-.01-.32-.14-.05-.13,.01-.27,.14-.32h0Z"/><rect class="cls-69" x="446.41" y="581.08" width="5.88" height="6.23"/><path class="cls-69" d="M439.11,594.8v7.92c-4.95-3.13-10.11-5.74-15.35-7.92h15.35Z"/><path class="cls-78" d="M452.04,594.8c-.12-2.5,.17-5,0-7.49-.02-.14,.08-.26,.22-.28,.14-.02,.26,.08,.28,.22-.17,2.51,.12,5.03,0,7.55,0,.32-.5,.32-.5,0h0Z"/><polygon class="cls-69" points="452.29 564.21 452.29 576.12 446.41 576.12 446.41 564.93 448.39 564.93 448.39 564.21 452.29 564.21"/><g><rect class="cls-78" x="448.39" y="557.67" width="3.9" height="3.41"/><path class="cls-78" d="M452.46,557.5c.05,1.26,.1,2.57,.08,3.85,0,0-.26,0-.26,0h-3.9s-.26,0-.26,0c.01-1.29-.02-2.58,.07-3.87,1.41,.07,2.79,.05,4.26,.03h0Zm-.35,.35c-1.19-.02-2.47-.04-3.72,.02l.2-.2c.07,1.14,.05,2.27,.06,3.41l-.25-.25h3.9s-.26,.25-.26,.25c-.01-1.07,.04-2.13,.09-3.23,0,0-.05,1.1,0,0Z"/></g><path class="cls-78" d="M452.04,564.21c-.12-1.05,.18-2.48,0-3.13-.1-.32,.41-.48,.5-.15,0,.31-.15,.62-.06,.93,.14,.77,.06,1.56,.06,2.35-.01,.31-.49,.31-.5,0h0Z"/><path class="cls-69" d="M452.29,534.93v18.36l-3.79,.04h-.11v-1.29c-6.58,0-12.16,6.72-12.83,11.71l-4.21-.57c.39-3,.54-6.22,.36-9.65-.27-5.03-1.44-8.79-3.59-12.3,.15,.03,.31,.04,.47,.04h6.47c1.35,0,2.44-1.09,2.44-2.44v-1.3h9.93v-2.6h4.86Z"/><path class="cls-69" d="M452.29,529.32v5.61h-4.86v2.6h-9.93v-1.85c0-1.35-1.09-2.44-2.44-2.44h-3.01v-8.35l.09-.35c.5,.15,1.02,.23,1.57,.23,2.24,0,4.18-1.28,5.13-3.15h6.1v5.06c0,2.75,2.23,4.97,4.98,4.97v-2.34s.11,.01,.16,.01h2.21Z"/><polygon class="cls-31" points="452.29 472.38 452.29 529.32 450.08 529.32 450.08 510.4 449.92 510.4 449.92 509.06 444.94 509.06 444.94 508.53 449.92 508.53 449.92 502.97 418.93 502.97 418.93 502.51 428.86 502.51 428.86 498.55 426.14 498.55 426.14 496.55 442.39 496.55 442.39 475.32 445.77 475.32 445.77 472.38 452.29 472.38"/><path class="cls-33" d="M452.29,472.38v-23.38c0-12.02-9.74-21.76-21.77-21.76l-30.47,.12"/><path class="cls-78" d="M452.04,557.67c-.12-1.46,.17-2.93,0-4.38-.03-.14,.06-.27,.2-.3,.18-.04,.35,.13,.3,.3-.17,1.45,.12,2.92,0,4.38,0,.31-.49,.31-.5,0h0Z"/><path class="cls-78" d="M452.04,581.08c-.12-1.66,.17-3.32,0-4.96-.03-.14,.06-.27,.2-.3,.14-.03,.27,.06,.3,.2-.17,1.68,.12,3.37,0,5.05,0,.31-.5,.31-.5,0h0Z"/><path class="cls-78" d="M315.16,616.15c2.62,29.64,4.11,68.9-6.41,96.9-1.73,4.33-3.93,8.52-6.92,12.14l-.04,.05c-.51,.14-1.08,.4-1.36,.81-.28,.38-.07,.88,.28,1.28,.37,.19,1.03,.15,1.5,.21,7.35,.26,14.71-.15,22.05-.48,18.14-.41,35.84-5.86,54.03-5.67,9.08,.3,18.06,1.73,26.99,3.33,0,0-.26,.25-.26,.25-2.32-20.4-2.07-41.57,3.97-61.34,2.14-6.5,4.93-13.1,9.15-18.46-7.75,11.36-11.25,25.12-12.86,38.69-1.55,13.61-1.39,27.44,.18,41.04,0,0,.04,.31,.04,.31l-.3-.06c-8.89-1.59-17.88-3.02-26.92-3.32-9.04-.03-18.06,1.16-26.99,2.56-3.98,.55-9.49,1.68-13.44,2.11-4.52,.47-9.04,.74-13.57,.99-6.79,.33-13.59,.64-20.39,.55-1-.03-2.01-.04-3-.21-.15-.05-.29-.02-.51-.23-.2-.23-.37-.49-.47-.82-.29-1.06,.87-1.74,1.7-1.97,5.41-6.73,8.81-16.44,10.76-25.27,3.98-18.19,4.48-36.96,4.09-55.52-.25-9.3-.79-18.6-1.74-27.85-.01-.12,.07-.23,.19-.25,.12-.02,.24,.07,.25,.2h0Z"/><path class="cls-78" d="M314.01,616.35c-13.49,13.08-56.24,51.72-72.92,29-9.07-13.35,5.78-28.25,15.79-36.15,8.58-6.52,18.21-11.9,28.64-14.76,3.45-.81,7.35-1.69,10.8-.98-3.5-.1-7.25,.21-10.73,1.25-10.36,2.91-19.91,8.35-28.4,14.89-9.78,7.72-24.55,22.44-15.69,35.46,13.5,18.25,43.43-4.75,56.1-14.73,5.57-4.52,10.96-9.29,16.06-14.33,.1-.1,.26-.1,.36,0,.1,.1,.1,.26,0,.35h0Z"/><path class="cls-78" d="M440.54,603.39c12.36,8.06,22.63,19.26,29.61,32.27,0,0,.08,.14,.08,.14l-.14,.09c-10.45,6.67-20.89,13.36-31.66,19.5-.97,.54-1.97,1.07-3.01,1.5-.76,.25-1.46-.38-1.99-.79-1.37-1.19-2.49-2.57-3.6-3.96-7.53-9.86-13.94-20.52-20.3-31.15,5.72,8.55,11.22,18.14,17.46,26.64,2.35,2.98,4.55,6.74,7.8,8.76,.33,.21,.78-.13,1.07-.23,9.89-5.08,24.4-14.71,34.05-20.57,0,0-.06,.23-.06,.23-3.51-6.45-7.78-12.5-12.75-17.9-4.97-5.4-10.64-10.16-16.78-14.18l.24-.36h0Z"/><path class="cls-78" d="M269.13,620.22c6.37-4.58,12.82-9.04,19.36-13.36,6.6-4.25,13.13-8.66,20.35-11.83,0,0,.18,.47,.18,.47-7.18,3.07-13.78,7.45-20.37,11.61-6.58,4.17-13.15,8.9-19.52,13.12h0Z"/><path class="cls-78" d="M520.75,744.58c.97,2.36,2.58,4.69,5.12,5.43,3.3,1.06,7.55-.37,8.86-3.73,2-6.24-3.96-14.09-9.91-15.76-4.95-1.55-11.13,2.55-15.24-1.79-1.95-1.77-3.67-3.96-4.64-6.38,.38-.15-46.16-79.28-44.47-78.7,0,0,44.63,78.62,44.63,78.62,.99,2.43,2.63,4.58,4.6,6.32,.97,.88,2.09,1.62,3.38,1.86,1.28,.24,2.6,.1,3.9-.08,3.85-.76,8.2-1.01,11.59,1.43,4.59,3.11,9.03,10.12,6.17,15.6-1.85,2.95-5.77,4.12-9.02,3.09-2.68-.8-4.38-3.27-5.36-5.74-.11-.25,.28-.39,.38-.15h0Z"/><path class="cls-33" d="M525.51,750.6c1.79,5.23,7.06,9.66,11.21,8.81,2.87-.59,5.79-3.04,6.13-6.13,.42-3.89-1.92-8.5-7.69-8.97"/><path class="cls-78" d="M441.44,655.01c15.99,27.59,32.33,54.93,47.27,83.1,.1,.2,.17,.45,.25,.67,.43,2.41,.78,4.97-.03,7.35-1.43,4.03-6.11,7.07-4.77,11.78,1.04,4.23,5.69,2.65,8.72,1.88,3.56-.99,6.83-2.13,7.29-6.28,.6-3.42,.33-7.07,1.38-10.51,.29-.84,.67-1.72,1.43-2.28,.77-.5,1.64-.76,2.52-.94,3.57-.58,7.13,.6,10.38,1.98,1.63,.73,3.22,1.5,4.72,2.53,.11,.08,.14,.23,.06,.34-.08,.12-.25,.14-.36,.05-4.54-2.93-10.51-5.87-16.01-4.31,0,0-.6,.25-.6,.25-1.04,.38-1.53,1.46-1.87,2.47-2.48,10.32,2.22,15.15-11.39,17.82-4.4,1.33-7.42-.89-6.91-5.58,.27-2.72,2.44-4.79,3.77-7.04,2.02-2.73,1.83-6.22,1.19-9.39-14.79-28.37-31.46-55.87-47.44-83.59-.09-.12-.06-.29,.07-.37,.12-.07,.27-.03,.34,.09h0Z"/><path class="cls-22" d="M543.87,756.26c.84,5.68-3.57,10.54-8.43,10.55-4.59,.02-8.88-4.29-8.6-9.7"/><path class="cls-22" d="M416.47,788.26c-14.98-.09-29.96-.17-44.94-.26,.46-7.24,.91-14.48,1.37-21.73,.22-3.57,.96-7.44,1.18-11.01,0,0,4.87,.4,20.44-.39,16.58-.84,19.39-1.6,19.39-1.6l1.04,14.31,1.51,20.66Z"/><line class="cls-22" x1="374.09" y1="767.59" x2="414.96" y2="767.59"/><line class="cls-8" x1="503.96" y1="781.7" x2="546" y2="781.11"/><line class="cls-8" x1="504.02" y1="785.95" x2="546.06" y2="785.36"/><path class="cls-18" d="M287.53,592.43c1.42-11.59,10.28-20.79,21.39-22.47,10.01-1.52,20.73,4.94,23.8,15.83"/><path class="cls-22" d="M314.67,680.8s-15.65,12.73-15.48,52.56c.02,5.75,3.01,17.65,19.49,17.96,21.86,.41,66.09,1.66,75.01,1.91,1.11,.03,2.21,0,3.31-.13,10.27-1.1,62.54-7.72,51.55-27.21-14.81-26.27-43.83-31.21-43.83-31.21"/><path class="cls-22" d="M330.6,754.04v31.16h-35.57v-20.62c0-4.72,1.82-9.25,5.08-12.66l4.79-5"/><path class="cls-33" d="M415.81,779.25s34.49-29.8,34.24-47.97"/><polyline class="cls-69" points="372.3 782.45 415.26 782.7 415.81 787.74 372.3 787.74 372.43 782 415.1 782.26"/><polygon class="cls-27" points="377.54 449.7 377.54 456 319.07 456 319.07 449.7 362.22 449.7 362.22 451.68 368.41 451.68 368.41 449.7 377.54 449.7"/><rect class="cls-27" x="319.07" y="459.4" width="58.47" height="6.3"/><path class="cls-27" d="M377.54,469.53v5.44c-.11,.28-.21,.56-.33,.85h-46.25v-2.4h-6.19v2.4h-5.7v-6.29h58.47Z"/><path class="cls-33" d="M377.54,474.97v.85h-.33c.12-.29,.22-.57,.33-.85Z"/><path class="cls-25" d="M384.69,457.36c-.07,2.76-1.2,5.65-3.32,7.19h0c-.98,.72-2.17,1.15-3.56,1.15h-.27v-6.3l.19-.03c1.27,.03,1.64-1.11,1.53-2.01-.09-.76-.32-1.36-1.45-1.36h-.27v-6.3h.4c3.86,0,6.84,3.83,6.75,7.66Z"/><path class="cls-25" d="M317.08,467.24c-.1,1.03,.26,2.32,1.53,2.29h.46v6.29c-4.41,0-6.78-4.29-6.88-8.34-.09-3.82,2.57-8.08,6.43-8.08h.45v6.3h-.54c-1.13,0-1.36,.69-1.45,1.54Z"/><path class="cls-25" d="M384.69,471.23v2.72h-6.76c.36-.95,.7-1.86,1.01-2.72h5.75Z"/><path class="cls-25" d="M378.94,471.23c-.31,.86-.65,1.77-1.01,2.72h-.39v-2.72h1.4Z"/><rect class="cls-27" x="384.69" y="471.23" width="5.74" height="2.72"/><polygon class="cls-33" points="399.11 471.23 398.25 472.39 397.28 471.23 399.11 471.23"/><polygon class="cls-33" points="398.25 472.39 399.56 473.95 397.11 473.95 398.25 472.39"/><path class="cls-25" d="M404.34,471.23v2.72h-1.99c.16-.45,.25-.93,.25-1.44,0-.45-.07-.87-.19-1.28h1.93Z"/><rect class="cls-29" x="404.34" y="471.23" width="3.62" height="2.72"/><path class="cls-25" d="M402.6,472.51c0,.51-.09,.99-.25,1.44h-2.79l-1.31-1.56,.86-1.16h3.3c.12,.41,.19,.83,.19,1.28Z"/><path class="cls-33" d="M399.11,471.23l-.86,1.16-.97-1.16h-3.34c.54-1.82,2.23-3.15,4.23-3.15s3.7,1.33,4.24,3.15h-3.3Z"/><path class="cls-33" d="M399.56,473.95h2.79c-.59,1.74-2.24,2.98-4.18,2.98-.76,0-1.47-.19-2.09-.54-.59-.3-1.09-.74-1.47-1.27-.26-.35-.47-.74-.61-1.17h3.11l1.14-1.56,1.31,1.56Z"/><path class="cls-25" d="M394,473.95h-3.57v-2.72h3.51c-.12,.41-.19,.84-.19,1.28,0,.51,.09,.99,.25,1.44Z"/><path class="cls-25" d="M398.25,472.39l-1.14,1.56h-3.11c-.16-.45-.25-.93-.25-1.44,0-.44,.07-.87,.19-1.28h3.34l.97,1.16Z"/><line class="cls-33" x1="397.28" y1="471.23" x2="395.77" y2="469.44"/><line class="cls-33" x1="400.65" y1="475.24" x2="399.56" y2="473.95"/><polyline class="cls-33" points="395.85 475.66 395.95 475.52 397.11 473.95"/><line class="cls-33" x1="400.45" y1="469.41" x2="399.11" y2="471.23"/><line class="cls-33" x1="390.61" y1="469.78" x2="390.43" y2="469.78"/><rect class="cls-25" x="384.69" y="473.95" width="5.74" height="1.62"/><line class="cls-33" x1="384.69" y1="475.57" x2="384.59" y2="475.57"/><rect class="cls-30" x="362.22" y="446.82" width="6.19" height="4.86"/><rect class="cls-30" x="324.77" y="473.42" width="6.19" height="4.86"/><line class="cls-33" x1="362.22" y1="446.82" x2="362.22" y2="446.34"/><path class="cls-17" d="M423.96,472.51c0,4.39-3.56,7.95-7.96,7.95s-7.95-3.56-7.95-7.95,3.56-7.96,7.95-7.96,7.96,3.56,7.96,7.96Z"/><circle class="cls-24" cx="416" cy="472.51" r="5.94"/><circle class="cls-33" cx="416.16" cy="475.23" r=".58"/><line class="cls-33" x1="415.58" y1="474.55" x2="412.25" y2="471.19"/><line class="cls-15" x1="419.98" y1="469.99" x2="417.86" y2="472.51"/><line class="cls-33" x1="416" y1="470.54" x2="416" y2="467.51"/><line class="cls-33" x1="414.19" y1="472.39" x2="412" y2="469.53"/><path class="cls-3" d="M421.45,455.08c0,.81-.32,1.53-.85,2.06-.53,.53-1.25,.86-2.06,.86h-8.64c-1.61,0-2.92-1.31-2.92-2.92,0-.81,.33-1.53,.86-2.06,.53-.53,1.25-.85,2.06-.85h8.64c1.61,0,2.91,1.3,2.91,2.91Z"/><circle class="cls-25" cx="418.54" cy="455.03" r="1.07"/><circle class="cls-26" cx="409.96" cy="455.09" r="1.59"/><circle class="cls-3" cx="437.11" cy="455.08" r="1.49"/><path class="cls-3" d="M433.6,457.68c0,.82-.67,1.49-1.49,1.49s-1.49-.67-1.49-1.49,.67-1.49,1.49-1.49,1.49,.67,1.49,1.49Z"/><path class="cls-3" d="M433.6,463.06c0,.82-.67,1.49-1.49,1.49s-1.49-.67-1.49-1.49,.67-1.49,1.49-1.49,1.49,.67,1.49,1.49Z"/><circle class="cls-3" cx="432.11" cy="468.44" r="1.49"/><path class="cls-3" d="M433.6,473.81c0,.83-.67,1.49-1.49,1.49s-1.49-.66-1.49-1.49,.67-1.49,1.49-1.49,1.49,.67,1.49,1.49Z"/><circle class="cls-3" cx="432.11" cy="479.19" r="1.49"/><circle class="cls-3" cx="432.11" cy="484.57" r="1.49"/><circle class="cls-3" cx="437.11" cy="460.44" r="1.49"/><circle class="cls-3" cx="437.11" cy="466.04" r="1.49"/><circle class="cls-3" cx="437.11" cy="471.63" r="1.49"/><path class="cls-3" d="M438.6,477.23c0,.82-.67,1.49-1.49,1.49s-1.49-.67-1.49-1.49,.67-1.49,1.49-1.49,1.49,.67,1.49,1.49Z"/><path class="cls-3" d="M438.6,482.82c0,.83-.67,1.49-1.49,1.49s-1.49-.66-1.49-1.49,.67-1.48,1.49-1.48,1.49,.66,1.49,1.48Z"/><path class="cls-3" d="M438.6,488.42c0,.82-.67,1.49-1.49,1.49s-1.49-.67-1.49-1.49,.67-1.49,1.49-1.49,1.49,.67,1.49,1.49Z"/><path class="cls-33" d="M398.1,481.97c2.61,1.54,5.14,1.85,6.13,1.94"/><path class="cls-33" d="M392.03,474.27c.37,1.17,1.36,3.78,3.85,6.06"/><path class="cls-33" d="M399.16,483.56c2.19,.94,4.2,1.25,4.99,1.32"/><path class="cls-33" d="M390.92,474.27c.39,1.22,1.88,4.71,4.58,7.05,.46,.4,.95,.75,1.44,1.07"/><path class="cls-33" d="M399.16,483.56c1.98,2.79,4.01,4.73,4.99,5.12"/><path class="cls-33" d="M395.82,474.02c.02,1.26,.43,4.95,2.28,7.95"/><path class="cls-33" d="M395.88,480.33c.28,.69,.62,1.37,1.03,2.01,.01,.02,.02,.03,.03,.05"/><path class="cls-33" d="M398.1,481.97s.04,.08,.07,.12c.32,.51,.66,1,.99,1.47"/><path class="cls-33" d="M396.94,482.39c2.27,3.54,6.07,7.08,7.21,7.54"/><path class="cls-33" d="M394.56,474.27c.02,1.01,.28,3.55,1.32,6.06"/><path class="cls-3" d="M428.86,494.5h0s-21.45,.01-21.45,.01v-.13c0-1.16,.94-2.11,2.11-2.11h17.11c1.23,0,2.23,1,2.23,2.23Z"/><path class="cls-3" d="M428.86,490.9v.02h-21.45v-.13c0-1.16,.94-2.11,2.11-2.11h17.11c1.23,0,2.23,1,2.23,2.22Z"/><path class="cls-3" d="M428.86,487.31h0s-21.45,.01-21.45,.01v-.12c0-1.16,.94-2.11,2.11-2.11h17.11c1.23,0,2.23,1,2.23,2.22Z"/><path class="cls-3" d="M407.15,451.42c0,.55-.44,.99-.99,.99s-.99-.44-.99-.99,.45-.99,.99-.99,.99,.44,.99,.99Z"/><line class="cls-33" x1="405.54" y1="450.84" x2="406.74" y2="452.06"/><path class="cls-3" d="M441.08,451.67c0,.55-.44,.99-.99,.99s-.99-.44-.99-.99,.44-.99,.99-.99,.99,.44,.99,.99Z"/><line class="cls-33" x1="439.47" y1="451.09" x2="440.67" y2="452.31"/><circle class="cls-3" cx="440.45" cy="494.7" r=".99"/><line class="cls-33" x1="439.83" y1="494.12" x2="441.03" y2="495.34"/><path class="cls-3" d="M406.86,494.71c0,.55-.44,.99-.99,.99s-.98-.44-.98-.99,.44-.99,.98-.99,.99,.45,.99,.99Z"/><line class="cls-33" x1="405.25" y1="494.13" x2="406.46" y2="495.36"/><path class="cls-12" d="M367.37,502.91v5.62h-14.73v-13.79h6.9c-.11,.15-.21,.3-.29,.45-.05,.08-.09,.15-.13,.23-.1,.17-.18,.34-.25,.52s-.13,.36-.18,.54c-.01,.02-.01,.03-.01,.04-.06,.2-.11,.41-.14,.61-.01,.02-.01,.03-.01,.05-.15,1.02-.03,2.06,.36,3.01,.17,.41,.38,.8,.65,1.16l.23,.2,1.55,1.36c.5,.28,1.04,.47,1.59,.59,.37,.07,.74,.11,1.12,.11,.27,0,.54-.02,.8-.06,.17-.02,.33-.05,.5-.09,.15-.03,.29-.07,.44-.12,.02-.01,.03-.01,.05-.02,.15-.05,.31-.11,.46-.17t.02-.01c.15-.07,.3-.15,.45-.23h.62Z"/><path class="cls-4" d="M359.54,494.74v6.61c-1.41-1.92-1.46-4.61,0-6.61Z"/><path class="cls-4" d="M366.75,502.91c-1.69,.94-3.77,.93-5.43,0h5.43Z"/><path class="cls-37" d="M366.75,502.91c-1.69,.94-3.77,.93-5.43,0-.39-.21-.76-.48-1.1-.79-.26-.24-.48-.5-.68-.77-1.41-1.92-1.46-4.61,0-6.61"/><rect class="cls-29" x="352.64" y="476.59" width="6.9" height="18.15"/><rect class="cls-25" x="367.37" y="502.97" width="82.55" height="5.56"/><rect class="cls-4" x="367.03" y="502.97" width=".34" height="5.56"/><path class="cls-9" d="M354.77,363.36c0,.21-.17,.38-.38,.38s-.39-.17-.39-.38,.18-.39,.39-.39,.38,.18,.38,.39Z"/><path class="cls-9" d="M355.66,365.7c0,.21-.17,.38-.38,.38s-.38-.17-.38-.38,.17-.39,.38-.39,.38,.18,.38,.39Z"/><path class="cls-9" d="M346.22,363.74c0,.21-.17,.38-.39,.38s-.38-.17-.38-.38,.17-.38,.38-.38,.39,.17,.39,.38Z"/><path class="cls-9" d="M353.54,366.46c0,.21-.18,.39-.39,.39s-.38-.18-.38-.39,.17-.38,.38-.38,.39,.17,.39,.38Z"/><path class="cls-9" d="M345.83,366.29c0,.21-.17,.39-.38,.39s-.38-.18-.38-.39,.17-.38,.38-.38,.38,.17,.38,.38Z"/><path class="cls-9" d="M348.22,366.29c0,.21-.17,.39-.39,.39s-.38-.18-.38-.39,.17-.38,.38-.38,.39,.17,.39,.38Z"/><path class="cls-9" d="M356.86,377.48c0,.22-.18,.39-.39,.39s-.38-.17-.38-.39,.17-.38,.38-.38,.39,.17,.39,.38Z"/><path class="cls-9" d="M356.05,379.82c0,.22-.17,.39-.39,.39s-.38-.17-.38-.39,.17-.38,.38-.38,.39,.17,.39,.38Z"/><path class="cls-9" d="M358.43,379.14c0,.22-.17,.39-.38,.39s-.39-.17-.39-.39,.18-.38,.39-.38,.38,.17,.38,.38Z"/><path class="cls-9" d="M348.6,379.14c0,.22-.17,.39-.38,.39s-.39-.17-.39-.39,.18-.38,.39-.38,.38,.17,.38,.38Z"/><path class="cls-9" d="M346.6,380.42c0,.21-.17,.38-.38,.38s-.39-.17-.39-.38,.18-.38,.39-.38,.38,.17,.38,.38Z"/><path class="cls-9" d="M347.45,382.55c0,.21-.17,.38-.38,.38s-.38-.17-.38-.38,.17-.38,.38-.38,.38,.17,.38,.38Z"/><path class="cls-4" d="M462.17,363.36c-2.04,14.6-5.23,18.81-5.23,18.81"/><path class="cls-4" d="M464.98,363.74s-1.28,16.26-4.34,19.19"/><polyline class="cls-69" points="332.21 778.29 330.6 778.29 295.02 778.29 295.02 778.47 295.02 778.98 295.02 785.2 330.6 785.2 329.87 778.38 293.36 778.51"/><line class="cls-33" x1="295.02" y1="766.06" x2="330.6" y2="766.06"/><path class="cls-33" d="M342.64,491.11c0,1.19,.96,2.15,2.15,2.15v1.48h-26.18v-7.26h26.18v1.48c-1.19,0-2.15,.96-2.15,2.15Z"/><line class="cls-33" x1="321.43" y1="487.48" x2="321.43" y2="485.06"/><line class="cls-33" x1="324.77" y1="487.48" x2="324.77" y2="485.06"/><line class="cls-33" x1="327.86" y1="487.48" x2="327.86" y2="485.06"/><line class="cls-33" x1="330.96" y1="487.48" x2="330.96" y2="485.06"/><line class="cls-33" x1="334.34" y1="487.48" x2="334.34" y2="485.06"/><line class="cls-33" x1="338.14" y1="487.48" x2="338.14" y2="485.06"/><line class="cls-33" x1="337.89" y1="497.17" x2="337.89" y2="494.74"/><line class="cls-33" x1="334.57" y1="497.17" x2="334.57" y2="494.74"/><line class="cls-33" x1="330.96" y1="497.17" x2="330.96" y2="494.74"/><line class="cls-33" x1="327.86" y1="497.17" x2="327.86" y2="494.74"/><line class="cls-33" x1="324.77" y1="497.36" x2="324.77" y2="494.94"/><line class="cls-33" x1="321.68" y1="505.45" x2="321.68" y2="494.94"/><circle class="cls-33" cx="322.34" cy="490.22" r=".9"/><line class="cls-33" x1="318.61" y1="485.06" x2="325.32" y2="485.06"/><line class="cls-33" x1="327.37" y1="497.17" x2="331.36" y2="497.17"/><circle class="cls-33" cx="363.26" cy="498.6" r="2.75"/><polygon class="cls-33" points="364.41 499.29 363.6 499.26 363.11 499.91 362.89 499.13 362.12 498.87 362.79 498.42 362.8 497.61 363.44 498.11 364.22 497.86 363.94 498.63 364.41 499.29"/><path class="cls-3" d="M446.41,510.4v15.25c0,1.98,1.55,3.58,3.51,3.66v2.34c-2.75,0-4.98-2.22-4.98-4.97v-17.62h4.98v1.34h-3.51Z"/><line class="cls-33" x1="334.34" y1="485.32" x2="334.34" y2="478.89"/><line class="cls-33" x1="352.26" y1="479.26" x2="334" y2="479.26"/><line class="cls-33" x1="337.32" y1="497.17" x2="352.26" y2="497.17"/><path class="cls-12" d="M439.29,517.65c-.33-1.38-1.17-2.57-2.31-3.36-.93-.65-2.05-1.02-3.27-1.02s-2.43,.4-3.37,1.1h0c-1.44,1.05-2.38,2.74-2.38,4.65,0,2.63,1.77,4.85,4.18,5.52,.5,.15,1.02,.23,1.57,.23,2.24,0,4.18-1.28,5.13-3.15,.4-.78,.62-1.66,.62-2.6,0-.47-.06-.93-.17-1.37Zm-5.58,5.16c-2.09,0-3.79-1.7-3.79-3.79s1.7-3.79,3.79-3.79,3.79,1.7,3.79,3.79-1.7,3.79-3.79,3.79Z"/><line class="cls-33" x1="436.98" y1="514.3" x2="436.98" y2="508.53"/><line class="cls-33" x1="430.34" y1="514.38" x2="430.34" y2="508.62"/><path class="cls-29" d="M437.5,519.02c0,2.09-1.7,3.79-3.79,3.79s-3.79-1.7-3.79-3.79,1.7-3.79,3.79-3.79,3.79,1.7,3.79,3.79Z"/><line class="cls-33" x1="438.44" y1="516.43" x2="444.72" y2="516.43"/><line class="cls-33" x1="439.11" y1="517.62" x2="445.38" y2="517.62"/><line class="cls-33" x1="439.03" y1="520.51" x2="444.72" y2="520.59"/><line class="cls-33" x1="431.56" y1="508.87" x2="431.56" y2="513.67"/><line class="cls-33" x1="435.49" y1="508.87" x2="435.49" y2="513.52"/><path class="cls-29" d="M449.92,510.4v18.91c-1.96-.08-3.51-1.68-3.51-3.66v-15.25h3.51Z"/><path class="cls-33" d="M450.08,510.4v18.92c-.05,0-.11,0-.16-.01v-18.91h.16Z"/><rect class="cls-25" x="442.71" y="457.77" width="3.06" height="7.37"/><rect class="cls-25" x="442.71" y="467.94" width="3.06" height="7.38"/><rect class="cls-29" x="446.03" y="458.95" width="4.27" height="1.49"/><rect class="cls-29" x="446.03" y="463.06" width="4.27" height="1.49"/><rect class="cls-29" x="446.03" y="470.89" width="4.27" height="1.49"/><line class="cls-33" x1="335.89" y1="521.78" x2="330.02" y2="531.62"/><rect class="cls-25" x="418.93" y="498.55" width="9.93" height="3.96"/><line class="cls-33" x1="422.18" y1="496.68" x2="422.18" y2="498.55"/><path class="cls-33" d="M235.43,781.86c-.3,2.78-1.32,4.82-2.54,4.82-1.46,0-2.64-2.9-2.64-6.48s1.18-6.47,2.64-6.47c1.19,0,2.2,1.95,2.52,4.62l-2.52-.21,.18,4.13,2.36-.41Z"/><polygon class="cls-33" points="248.87 779.5 235.43 781.86 233.07 782.27 232.89 778.14 235.41 778.35 248.87 779.5"/><path class="cls-33" d="M250.61,781.49c2.74-.54,4.99-.18,5.36,.99,.44,1.39-1.98,3.39-5.4,4.45s-6.53,.8-6.96-.59c-.36-1.14,1.2-2.68,3.66-3.78l.55,2.47,3.89-1.4-1.1-2.13Z"/><polygon class="cls-33" points="244.34 769.36 250.61 781.49 251.7 783.62 247.81 785.02 247.26 782.55 244.34 769.36"/><rect class="cls-26" x="315.86" y="506.88" width="26.29" height="56.67"/><rect class="cls-33" x="319.06" y="510.4" width="20.05" height="7.21"/><rect class="cls-33" x="320.88" y="511.78" width="2.23" height="4.34"/><rect class="cls-33" x="325.1" y="511.78" width="2.23" height="4.34"/><rect class="cls-33" x="329.82" y="511.78" width="2.23" height="4.34"/><rect class="cls-33" x="334.54" y="511.78" width="2.23" height="4.34"/><line class="cls-33" x1="319.99" y1="513.4" x2="324.01" y2="513.4"/><line class="cls-33" x1="324.2" y1="514.68" x2="328.22" y2="514.68"/><line class="cls-33" x1="328.93" y1="513.24" x2="332.95" y2="513.24"/><line class="cls-33" x1="333.65" y1="514.68" x2="337.67" y2="514.68"/><line class="cls-33" x1="337.67" y1="524.34" x2="337.67" y2="542.15"/><line class="cls-33" x1="319.06" y1="476.04" x2="319.06" y2="485.06"/><path class="cls-69" d="M439.11,581.08v6.23h-17.11c1.08-1.64,2.41-3.77,3.74-6.36l.17,.13h13.2Z"/><line class="cls-33" x1="422" y1="587.31" x2="421.79" y2="587.31"/><rect class="cls-25" x="439.11" y="581.08" width="7.3" height="6.23"/><line class="cls-33" x1="427.94" y1="576.12" x2="426.81" y2="576.12"/><line class="cls-33" x1="423.76" y1="594.8" x2="423.66" y2="594.8"/><rect class="cls-25" x="439.11" y="564.93" width="7.3" height="11.19"/><path class="cls-25" d="M448.39,552.04v12.89h-12.9v-.21c0-.31,.02-.64,.07-.97,.67-4.99,6.25-11.71,12.83-11.71Z"/><path class="cls-25" d="M332.86,565.66h8.33v9.4h-2.04c-3.47,0-6.29-2.82-6.29-6.29v-3.11h0Z"/><line class="cls-33" x1="334.57" y1="562.62" x2="334.57" y2="565.17"/><line class="cls-33" x1="341.66" y1="567.34" x2="345.87" y2="567.34"/><line class="cls-33" x1="341.19" y1="573.96" x2="346.99" y2="573.96"/><path class="cls-3" d="M321.04,556.74h15.93c1.55,0,2.81,1.26,2.81,2.81h-21.54c0-1.55,1.26-2.81,2.81-2.81Z"/><circle class="cls-25" cx="337.67" cy="545.08" r="1.9"/><rect class="cls-3" x="337.23" y="543.91" width=".87" height="2.35"/><path class="cls-7" d="M437.5,535.68v3.15c0,1.35-1.09,2.44-2.44,2.44h-6.47c-.16,0-.32-.01-.47-.04h0c-1.12-.22-1.98-1.21-1.98-2.4v-3.15c0-1.35,1.1-2.44,2.45-2.44h6.47c1.35,0,2.44,1.09,2.44,2.44Z"/><line class="cls-22" x1="450.64" y1="537.53" x2="447.43" y2="537.53"/><circle class="cls-5" cx="432.04" cy="537.53" r="2.17"/><rect class="cls-25" x="410.73" y="496.55" width="3.64" height="6.42"/><line class="cls-33" x1="410.72" y1="508.53" x2="410.72" y2="525.19"/><polygon class="cls-22" points="210.85 748.68 206.1 750.19 188.14 755.91 164.57 755.91 164.05 754.29 177.37 750.05 208.16 740.25 210.85 748.68"/><path class="cls-22" d="M91.88,755.91c.7-2.55,2.25-4.74,4.32-6.26,1.93-1.43,4.32-2.27,6.91-2.27s5.05,.87,7,2.34c.94,.7,1.76,1.54,2.45,2.49"/><path class="cls-22" d="M128.9,755.91c-2.04-3.36-5.74-5.6-9.96-5.6-2.36,0-4.54,.7-6.38,1.9-1.45,.95-2.68,2.22-3.58,3.7"/><line class="cls-79" x1="452.04" y1="604.17" x2="482.43" y2="580.25"/><polyline class="cls-77" points="284.72 594.8 261.91 574.81 211.93 627.63 208.5 645.21 219.4 690.99 261.53 777.19 266.26 772.17 257.7 673.62 277.96 647.83 246.61 652.14 238.38 636.21 246.04 618.21 284.36 594.49 260.09 572.47"/><polyline class="cls-73" points="484.98 342.81 275.11 342.81 265.4 368.86 493.15 368.86"/><path class="cls-20" d="M359.1,378.04l-4.62-6-.84-1.08-.91-1.19-.5-.65-1.47-1.9-3.5-4.55c-.92-1.19-2.63-1.41-3.82-.49-.69,.53-1.06,1.33-1.06,2.15,0,.58,.19,1.17,.57,1.67l2.39,3.1,2.77,3.6h0s1.08,1.4,1.08,1.4l1.81,2.34,.83,1.09,2.96,3.84c.92,1.19,2.63,1.41,3.82,.49,1.19-.92,1.41-2.63,.49-3.82Zm-11.27-12.13c.22,0,.39,.17,.39,.38s-.17,.39-.39,.39-.38-.18-.38-.39,.17-.38,.38-.38Zm-2-2.55c.22,0,.39,.17,.39,.38s-.17,.38-.39,.38-.38-.17-.38-.38,.17-.38,.38-.38Zm-.76,2.93c0-.21,.17-.38,.38-.38s.38,.17,.38,.38-.17,.39-.38,.39-.38-.18-.38-.39Zm10.59,13.92c-.21,0-.38-.17-.38-.39s.17-.38,.38-.38,.39,.17,.39,.38-.17,.39-.39,.39Zm.81-2.34c-.21,0-.38-.17-.38-.39s.17-.38,.38-.38,.39,.17,.39,.38-.18,.39-.39,.39Zm1.58,1.66c-.21,0-.39-.17-.39-.39s.18-.38,.39-.38,.38,.17,.38,.38-.17,.39-.38,.39Z"/><path class="cls-6" d="M356.42,361.74c-.38-.18-.78-.27-1.18-.27-1.01,0-1.98,.56-2.45,1.54l-2.03,4.21-.91,1.89-1.74,3.59h0s-3.75,7.79-3.75,7.79c-.66,1.35-.09,2.98,1.27,3.63,1.35,.66,2.98,.09,3.63-1.27l2.57-5.32,2.65-5.49,1.4-2.91,1.81-3.75c.66-1.36,.09-2.99-1.27-3.64Zm-10.2,19.06c-.21,0-.39-.17-.39-.38s.18-.38,.39-.38,.38,.17,.38,.38-.17,.38-.38,.38Zm9.06-15.49c.21,0,.38,.18,.38,.39s-.17,.38-.38,.38-.38-.17-.38-.38,.17-.39,.38-.39Zm-.89-2.34c.21,0,.38,.18,.38,.39s-.17,.38-.38,.38-.39-.17-.39-.38,.18-.39,.39-.39Zm-1.24,3.11c.21,0,.39,.17,.39,.38s-.18,.39-.39,.39-.38-.18-.38-.39,.17-.38,.38-.38Zm-6.08,16.85c-.21,0-.38-.17-.38-.38s.17-.38,.38-.38,.38,.17,.38,.38-.17,.38-.38,.38Zm1.15-3.4c-.21,0-.39-.17-.39-.39s.18-.38,.39-.38,.38,.17,.38,.38-.17,.39-.38,.39Z"/><rect class="cls-9" x="349.7" y="369.39" width="2.64" height="7.91" rx=".38" ry=".38" transform="translate(197.1 -115.44) rotate(25.76)"/><polyline class="cls-51" points="450.34 576.51 428.12 576.51 426.55 581.08 451.03 581.08"/><polyline class="cls-49" points="451.01 588 419.02 587.31 418.7 594.46 451.38 594.09"/><polyline class="cls-49" points="450.77 553.74 448.21 553.74 448.3 557.23 451.38 557.23"/><polyline class="cls-49" points="450.72 561.32 448.67 561.32 448.67 564.21 451.03 564.21"/><polyline class="cls-33" points="334.55 563.15 334.57 565.49 339.78 565.49 339.78 562.62"/><polygon class="cls-51" points="339.57 562.85 334.72 562.85 334.57 565.17 339.57 565.17 339.57 562.85"/><polyline class="cls-51" points="439.46 520.81 444.62 520.81 444.53 521.4 439.21 521.4"/><polyline class="cls-51" points="444.43 516.62 444.43 517.38 439.55 517.38 439.21 516.62"/><polyline class="cls-51" points="435.61 508.98 435.61 513.4 437.09 514.02 436.98 508.98"/><polyline class="cls-65" points="430.34 508.98 430.45 513.91 431.56 513.28 431.68 508.98"/><path class="cls-65" d="M353.06,494.94v13.23h13.68l-.15-4.9s-2.79,1.37-6.54-1.07c-3.17-2.06-1.06-7.04-1.06-7.04l-5.93-.21Z"/><path class="cls-33" d="M307.05,555.15c10.44-4.37,28.51-17.98,43.4-35.38,1.63-1.9,5.17-6.62,8.23-11.6"/><path class="cls-33" d="M310.89,538.94c10.1-5.45,24.48-14.78,38.17-30,10.65-11.84,17.77-24.09,22.18-33.11"/><path class="cls-33" d="M310.64,543.91c10.44-4.37,28.51-17.98,43.4-35.38,10.45-12.22,18.22-23.78,21.48-32.71"/><path class="cls-33" d="M377.21,475.82c-2.83,7.37-6.74,16.84-11.45,25.97-.2,.37-.39,.75-.59,1.12-.11,.21-.23,.42-.34,.64-.89,1.68-1.81,3.35-2.76,4.98-3.46,5.97-7.25,11.49-11.3,15.81-2.93,3.12-5.89,6.19-8.85,9.15-1.42,1.42-2.84,2.82-4.25,4.18-7.9,7.63-15.56,14.25-22.04,18.64-2.42,1.64-4.67,2.97-6.7,3.94-.38,.17-.75,.34-1.11,.49"/><polyline class="cls-69" points="444.43 517.78 439.61 517.94 439.61 520.36 444.62 520.36"/><polyline class="cls-69" points="435.3 508.98 435.3 513.28 431.56 513.28 431.78 509.01"/><polygon class="cls-69" points="437.15 508.98 437.15 514.12 439.11 516.24 444.62 516.24 444.62 508.87 437.15 508.98"/><polyline class="cls-51" points="422.44 496.68 422.44 498.18 425.79 498.34 425.79 496.68"/><polyline class="cls-69" points="450.3 460.77 445.77 460.77 446.02 462.6 450.6 463.06"/><polyline class="cls-69" points="450.6 464.94 446.02 464.94 442.39 465.45 442.71 467.94 445.77 467.94 445.77 470.89 451.36 470.54"/><path class="cls-69" d="M450.81,458.95h-4.78v-1.27s-3.77-.32-3.77-.32l.13-7.66-37.83,.11-.22,21.42-1.93-.69-3.3-2.46-3.23,.64-2.39,2.38-2.88,.34-.18-4.38h-5.96s0,3.48,0,3.48l-6.54,.69-.39-1.7-60-.44v-2.73l.99-.66h60.41l3.64-1.93,2.11-4.98-.61-5.59-4.26-3.53-11.09,.13-.08-3.13-6.75-.1-.06,2.67-42.76,.45,.04,6.04,59.83,.47v2.85l-59.11,.31s-10.71-10.86-10.9-10.93,6.18-16.23,6.18-16.23l13.09-4.97,40.21-1.8,5.02,6.9,7.17,5.1,8.04-.65,13.71-8.3,34.76-1.27,15.18,15.18"/><polyline class="cls-75" points="321.12 513.84 322.62 513.84 322.54 515.77 321.12 515.7"/><polyline class="cls-75" points="330.11 513.66 331.61 513.66 331.51 515.77 330.04 515.77"/><polyline class="cls-67" points="325.37 515 326.87 515 326.87 515.89 325.26 515.89"/><polyline class="cls-67" points="334.75 515 336.39 515 336.33 515.77 334.75 515.77"/><polyline class="cls-55" points="325.45 512.03 326.93 512.18 326.93 514.43 325.26 514.38"/><polyline class="cls-55" points="330.04 512.11 331.7 512.11 331.8 512.91 329.82 512.91"/><polyline class="cls-55" points="334.81 512.11 336.39 512.18 336.46 514.35 334.54 514.27"/><polyline class="cls-55" points="321.2 512.03 322.62 512.03 322.62 513.07 320.98 513.23"/><polyline class="cls-69" points="410.6 508.98 413.98 508.98 413.98 525.66 410.6 523.87"/><polygon class="cls-69" points="414.68 496.68 421.81 496.68 421.81 498.09 418.93 498.61 418.93 502.68 414.68 502.68 414.68 496.68"/><polyline class="cls-69" points="414.68 525.66 425.53 534.94 427.45 532.94 431.91 532.94 431.69 524.78 428.86 522.6 427.83 518.85 429.11 515.41 430.21 514.02 429.92 508.98 414.36 509 414.36 525.66"/><polygon class="cls-69" points="367.62 424.23 374.05 414.26 385.62 411.4 396.43 417.02 401.91 429.47 394.56 440 366.01 441.53 367.62 424.23"/><path class="cls-60" d="M386.51,245.11s30.47-.81,28.43,44-26.43,44.68-26.43,44.68c0,0-29.74-.38-30-42.13s22.17-48.17,28-46.55Z"/><polygon class="cls-50" points="276.04 615.33 287.4 636.77 315.03 617.09 316.68 685.11 303.21 727.81 361.45 721.87 404.87 722.96 405.53 675.4 416.47 646.3 422 640.94 435.36 658.04 470 635.74 441.81 602.72 398.09 586.55 363.74 584.13 323.36 590.36 297.49 600.98 276.04 615.33"/><path class="cls-63" d="M418.8,592.21l10.94-21.33,1.69-23.9-16.76-17.91-12.91-3.88,8.96-7.87-11.49-.97-10,5.28-7.99-7-9.35,2.7,5.32,5.32-21.12,9.53s-9.02,13.78-8.77,14.08-.89,28.81-.89,28.81l4.54,10.02,35.12,.45,32.72,6.68Z"/><polygon class="cls-77" points="481.48 581 452.8 603.57 443.49 605.45 470.72 635.57 460.17 645.28 497.11 707.06 525.24 648.34 520.43 627.63 481.48 581"/><polyline class="cls-54" points="463.1 698.31 455.27 778.14 484.19 730.04"/><polygon class="cls-69" points="359.87 491.91 358.33 497.24 358.68 501.55 363.79 503.62 369.32 501.35 359.87 491.91"/><polyline class="cls-58" points="277.32 614.77 287.4 638.25 257.79 653.32 240.55 646.43 239.15 628.94 255.74 610.43 279.96 597.21 288.72 592.43 294.72 575.45 310.85 570.94 323.72 574.17 332.3 586.85 305.19 597.4"/><polyline class="cls-58" points="441.7 654.54 488.95 737.62 482.56 757.27 490.73 760.42 499.27 753.1 500.58 742.55 504.01 738.63 516.48 742.14 525.66 749.1 533.02 746.29 533.02 736.11 525.78 729.44 510.27 730.07 458.05 643.14"/><polygon class="cls-18" points="525.87 752.98 531.57 767.11 544.51 761.53 541.7 747.02 537.02 745.11 525.87 752.98"/><polyline class="cls-68" points="329.79 766.47 295.02 766.89 295.02 778.47 330.6 777.62"/><path class="cls-68" d="M373.36,768.77l40.94-1.18,1.57,14.16s-44.66-.89-44.33-.9"/><polygon class="cls-80" points="304.77 748.34 297.28 757.02 295.74 765.28 330.89 765.28 330.04 752.85 304.77 748.34"/><polyline class="cls-80" points="374.98 756.34 373.96 766.47 413.7 766.81 413.19 753.24"/><path class="cls-66" d="M58.55,725.05l14.39,26.6s-.26,25.05,0,25.05,13.02,6.64,13.02,6.64l136.43-.38,.13-25.51-3.93-8.39,2.63-8.8-10.62-19.98-144.29-2.46-7.75,7.23Z"/><polygon class="cls-72" points="70.81 725.05 79.7 742.81 73.64 749.49 173.62 750.58 208.38 739.87 211.23 750.22 217.32 748.94 204.17 725.05 70.81 725.05"/><path class="cls-1" d="M92.09,754.81s4.53-7.98,10.4-7.72,10.07,4.56,10.07,4.56l-2.79,3.41-17.68-.26Z"/><polygon class="cls-52" points="113.53 755.45 109.51 754.68 115.38 750.31 123.74 750.58 128.28 754.62 113.53 755.45"/><polygon class="cls-52" points="165.4 754.45 207.99 740.25 210.59 748.78 189.68 756.26 165.4 754.45"/><path class="cls-49" d="M232.84,774.21s-2.9-.29-2.59,5.98,2.64,6.48,2.64,6.48c0,0,3.28-2.57,2.94-4.41s13.83-2.62,13.83-2.62l-14.25-1.3-1.19-4.14"/><polyline class="cls-65" points="244.64 770.19 247.67 782.68 243.81 784.6 243.77 787.08 251.21 787.08 256.32 782.97 253.41 781.05 250.64 781.12 250.35 780.7"/><polygon class="cls-57" points="313.83 682.89 302.87 702.93 299.39 725.26 310.38 712.34 313.83 682.89"/><polyline class="cls-59" points="299.39 727.85 405.7 721.7 405.7 694.19 432.8 706.04 449.92 727.85 446.21 741.11 430.55 766.47 416.34 778.14 413.78 750.58 354.81 753.24 306.61 749.28 299.19 733.36"/><path class="cls-72" d="M124.34,768l-.72-.03-9.96-.38s2.51-7.25,9.66-6.74c7.15,.51,9.62,6.3,9.62,6.3l37.02-.46,5.02-3.58,7.66,2.17,1.79,7.57-5.28,5.44-5.87-.51-3.93-1.7-36.41-.15-9.64,5.11-7.98-4.02-1.79-3.26,10.53-.32-.26-6.32-10.91,.89,4.21-6.45"/><path class="cls-66" d="M176.28,766.68c2.02-.08,3.95,1.33,4.34,3.25,.5,2.48-1.73,5.1-4.34,5.04-2.09-.05-4.15-1.8-4.15-4.15,0-2.32,2.02-4.06,4.15-4.14Z"/><ellipse class="cls-56" cx="339.02" cy="790.41" rx="296.3" ry="7.83"/></g><g id="Shadows_Highlights"><circle class="cls-71" cx="394.44" cy="147.48" r="6.2"/><path class="cls-70" d="M386.23,135.5h0c-3.32,4.52-6.81,10.89-7.19,18.71-.52,10.58,4.96,17.53,3.63,18.33-1.74,1.05-14.87-8.49-13.33-20.89,.92-7.41,6.82-13.84,14.98-16.51"/><path class="cls-62" d="M393.87,246.76c3.34,7.63,7.2,18.69,8.57,32.5,2.93,29.59-7.69,50.26-5.08,51.81,2.74,1.64,19.31-18.39,18.87-44.01-.38-22.59-13.78-37.52-16.87-40.79"/><polyline class="cls-74" points="357 288.51 410.9 263.01 416.15 278.81 359.05 306.22"/><polygon class="cls-74" points="362.51 314.07 416.28 287.06 416.28 295.62 366.55 320.26 362.51 314.07"/><path class="cls-47" d="M456.76,681.01c-1.37-3.82-3.28-10.71-2.63-19.4,.68-9.05,3.81-15.8,5.81-19.39-6.08,4.11-12.15,8.21-18.23,12.32,5.02,8.82,10.04,17.65,15.05,26.47Z"/><path class="cls-45" d="M405.7,721.7c.31,0-1.16-8.52,3.74-14.38,4.44-5.3,11.28-5.06,11.31-7.04,.02-1.39-3.31-3.25-16.17-5.59,.49,21.13,.85,27.02,1.11,27.02Z"/><path class="cls-43" d="M70.51,724.44c2.81,6.21,5.61,12.41,8.42,18.62-1.97,2.15-3.94,4.29-5.91,6.44,26.95-.06,53.91-.11,80.86-.17-11.44,1.08-33.62,1.48-57.32-9.83-10.67-5.09-18.89-11.24-24.89-16.6"/><polyline class="cls-41" points="414.96 751.87 416.34 778.14 449.92 739.11 415.68 751.62"/><path class="cls-39" d="M422,640.94c-10.68,8.08-12.21,20.17-15.95,33.11-3.14-18.57,.5-35.47,3.86-52.53"/><path class="cls-42" d="M266.19,780.13c-6.51,1.94-20.4-36.94-33.6-61.68-16.12-30.2-17.2-60.63-19.74-80.8,17.16,30.12,34.32,60.25,51.49,90.37,6.6,40.98,4.97,51.19,1.86,52.12Z"/><path class="cls-53" d="M445.74,607.33l29.01-21.03s-3.71,25.56,1.43,59.49c4.54,29.96,20.65,62.1,20.65,62.1l-36.88-65.66,10.79-6.31-24.98-28.58Z"/><path class="cls-64" d="M388.51,207.66c-13.41-8.31-117.18,84.53-139.01,216.14-6.11,36.83-8.12,82.55,3.69,116.66,3.98,11.5,2.47,25.28,8.55,33.06,6.89,8.81,13.69,14.75,21.88,20.29,4.02-35.7-14.61-88.07,.97-178.84,28.11-163.86,113.24-201.54,103.91-207.32Z"/><path class="cls-61" d="M314.81,614.81c4.15,6.54,16.09,27.24,13.62,55.49-2.84,32.5-22.77,52.39-27.87,57.19,3.77-6.18,8.01-14.51,11.19-24.85,4.41-14.37,5.04-27,4.77-35.74-.57-17.36-1.13-34.72-1.7-52.09Z"/><path class="cls-44" d="M286.3,635.69c7.33-10.76,14.02-23.74,21.35-34.5,3.15,4.99,6.3,9.99,9.45,14.98-10.27,6.51-20.53,13.02-30.8,19.52"/><path class="cls-38" d="M353.08,585.01c3.71,.34,3.15-16.95,16.54-33.18,11.8-14.31,28.52-20.65,42.56-23.7l-11.16-4.64,9.7-6.17c-1.9-.73-5.36-1.75-9.69-1.34-6.51,.61-10.83,4.07-12.36,5.43-.1-.53-1.09-5.34-5.26-7.11-4.12-1.75-9.64,.19-9.99,2.58-.36,2.48,4.9,5.09,5.39,5.34-4.9,.48-14.94,2.21-22.72,9.96-18.02,17.93-8.19,52.37-3.01,52.84Z"/><polygon class="cls-40" points="64.48 717.82 58.55 725.05 71.8 749.47 71.97 777.68 85.96 783.34 87.36 757.23 77.02 751.65 74.72 745.71 78.67 742.48 64.48 717.82"/><polygon class="cls-46" points="209.1 721.49 205.79 725.67 217.32 747.38 222.38 740.89 209.1 721.49"/><polyline class="cls-48" points="312.68 682.71 302.87 702.93 299.39 727.85 312.81 705.01 313.7 681.73"/></g><g id="Stroke"><line class="cls-28" x1="493.92" y1="369.53" x2="355.75" y2="369.13"/><line class="cls-28" x1="345.21" y1="369.1" x2="263.5" y2="368.86"/><rect class="cls-33" x="404.21" y="449.7" width="38.04" height="46.85"/><rect class="cls-16" x="384.56" y="467.06" width="5.74" height="11.4"/><path class="cls-28" d="M388.51,172.6v35.06c-22.58,15.16-94.22,67.35-127.15,167.49-31.2,94.87-8.69,175.16,0,201.7"/><circle class="cls-28" cx="388.51" cy="154.55" r="19.4"/><ellipse class="cls-28" cx="386.51" cy="289.11" rx="29.64" ry="45.45"/><line class="cls-28" x1="273.92" y1="342.27" x2="487.03" y2="342.47"/><path class="cls-28" d="M484.06,730.04c-16.74,28.8-29.62,49.21-29.62,49.21l8.97-85.06"/><path class="cls-28" d="M388.51,207.65c24.65,20.34,70.21,63.78,97.02,134.3,42.74,112.38,7,212.29-3.23,238.3,0,0,10.7,11.21,21.4,24.94,10.71,13.74,21.41,29.99,21.41,40.08,0,9.04-13.21,35.34-28.42,62.61"/><path class="cls-28" d="M500.1,777.36h50.45v12.77h-50.08c-3.08,0-5.58-2.5-5.58-5.58v-1.98c0-2.87,2.33-5.2,5.2-5.2Z" transform="translate(-12.77 8.67) rotate(-.94)"/><line class="cls-28" x1="551.91" y1="783.6" x2="601.7" y2="783.6"/><path class="cls-34" d="M373.3,427.24c0-5.64,4.57-10.22,10.21-10.22s10.22,4.58,10.22,10.22"/><line class="cls-34" x1="376.23" y1="434.22" x2="390.19" y2="420.26"/><path class="cls-13" d="M373.3,427.24c0,5.64,4.57,10.21,10.21,10.21s10.22-4.57,10.22-10.21m5.67,0c.01-.1,.01-.21,.01-.31,0-8.77-7.12-15.89-15.9-15.89s-15.89,7.12-15.89,15.89c0,.1,0,.21,.01,.31"/><path class="cls-78" d="M347.82,577.46c-3.6-10.62-4.93-22.61-1.28-33.44,2.7-7.18,7.89-13.28,14.3-17.47,5.44-3.45,11.68-5.5,18.15-5.58,.83,0,1.51,.65,1.52,1.48,.01,.8-.61,1.45-1.39,1.52-2.8,.37-5.65,1.15-8.33,2.17-8.03,3.05-15.02,8.9-19.26,16.37-2.65,5-3.81,10.85-3.99,16.74-.18,5.9,.43,11.93,1.73,17.77,.24,.9-1.13,1.37-1.46,.44h0Z"/><line class="cls-13" x1="222.38" y1="755.06" x2="222.38" y2="785.19"/><line class="cls-13" x1="85.36" y1="783.81" x2="223.57" y2="783.81"/><line class="cls-13" x1="86.38" y1="755.91" x2="86.38" y2="785.19"/><polyline class="cls-13" points="84.91 755.91 164.44 755.91 188.01 755.91 223.58 755.91"/><line class="cls-13" x1="86.02" y1="783.96" x2="71.21" y2="777.4"/><line class="cls-13" x1="71.8" y1="748.81" x2="71.97" y2="778.68"/><polyline class="cls-34" points="71.8 749.47 72.45 749.47 73.01 749.49 73.51 749.49 94.32 749.77"/><polyline class="cls-34" points="215.86 750.25 209.59 750.22 209.59 750.22"/><line class="cls-34" x1="173.84" y1="750.05" x2="111.73" y2="749.74"/><line class="cls-13" x1="209.02" y1="719.57" x2="63.68" y2="717.79"/><path class="cls-19" d="M169.35,767.59c1.18-2.65,3.84-4.49,6.93-4.49,4.19,0,7.59,3.4,7.59,7.6s-3.4,7.59-7.59,7.59c-2.41,0-4.56-1.12-5.95-2.87m5.82-8.74c-2.29,0-4.15,1.85-4.15,4.14s1.86,4.15,4.15,4.15,4.15-1.85,4.15-4.15-1.86-4.14-4.15-4.14Z"/><path class="cls-19" d="M180.3,770.82c0,2.3-1.86,4.15-4.15,4.15s-4.15-1.85-4.15-4.15,1.86-4.14,4.15-4.14,4.15,1.85,4.15,4.14Z"/><path class="cls-19" d="M180.3,770.82c0,2.3-1.86,4.15-4.15,4.15s-4.15-1.85-4.15-4.15,1.86-4.14,4.15-4.14,4.15,1.85,4.15,4.14Z"/><line class="cls-32" x1="169.35" y1="767.59" x2="132.17" y2="767.59"/><path class="cls-32" d="M170.36,775.43h-38.19c-.56,1.01-2.31,3.12-5.7,4.23-5.02,1.65-10.17-.53-12.43-5.79,3.72-.02,6.74,.02,10.46,0-.04-3.13-.04-3.15-.09-6.28-3.85,.04-7.03-.04-10.88,0,1.51-4.49,4.26-6.36,9.02-6.31s8,1.11,9.62,5.91"/><line class="cls-13" x1="85.94" y1="783.92" x2="71.14" y2="777.37"/><line class="cls-13" x1="85.62" y1="755.93" x2="70.81" y2="749.37"/><line class="cls-13" x1="71.99" y1="749.9" x2="80.47" y2="741.53"/><line class="cls-13" x1="57.63" y1="724.78" x2="65.34" y2="716.95"/><line class="cls-13" x1="57.62" y1="723.57" x2="71.8" y2="749.53"/><line class="cls-13" x1="64.88" y1="717.31" x2="78.62" y2="741.96"/><line class="cls-13" x1="203.59" y1="724.82" x2="217.33" y2="749.47"/><line class="cls-13" x1="69.19" y1="724.43" x2="205.79" y2="725.67"/><line class="cls-13" x1="216.77" y1="749.36" x2="222.38" y2="755.06"/><line class="cls-13" x1="208.85" y1="718.68" x2="221.79" y2="742.81"/><line class="cls-13" x1="220.43" y1="741.36" x2="218.38" y2="749.9"/><line class="cls-13" x1="208.68" y1="720.26" x2="204.85" y2="725.66"/><path class="cls-28" d="M261.79,574.81s-51.92,46.18-53.19,60.77c-2.89,33.32,23.18,94.4,57.53,146.3"/><path class="cls-28" d="M301.12,627.63s-25.22,14.28-44.19,45.05c-1.13,1.83,8.85,109.62,8.85,109.62"/><path class="cls-78" d="M377.82,523.71c-1.71-1.05-3.6-2.4-5.52-2.57-1.15,.14-2.31-.64-2.39-1.87-.05-.45,.07-.75,.24-1.13,2.18-4.25,7.66-6.34,12.05-4.44,2.83,1.55,4.43,3.68,6.31,5.9,.18,.23,.6,.76,.77,.99,.06,.08,.25,.31,.11,.17-.13-.11-.33-.13-.48-.04-.03,.02,.04-.03,.06-.04l.69-.45c3.36-2,6.56-4.47,10.48-5.41,4.17-.72,8.42,.02,12.37,1.49,0,0-.74,1.89-.74,1.89-1.49,3.69-4.59,6.57-8.37,7.78-.12,.04-.35,.12-.21,.07,.17-.07,.24-.1,.51-.31-.04,.07,.56-.51,.63-.9,.21-.22,.18-1.65-.34-2.07-.24-.31-.64-.58-1-.68,0,0-.07-.02-.07-.02-.08-.02,.25,.03,.24,.03,0,0,.73,.08,.73,.08,9,.91,15.43,5.1,21.22,11.92,2.75,3.05,5.28,6.54,6.65,10.5,2.6,7.98,1.8,16.28-.13,24.19-1.03,3.89-2.46,7.66-4.31,11.2-1.84,3.54-4.07,6.88-6.41,10.01-.23,.3-.65,.36-.96,.14-.28-.21-.35-.61-.18-.9,6.29-9.64,10.4-20.83,10.18-32.42-.06-3.82-.43-7.54-1.77-10.87-1.31-3.34-3.56-6.26-6.14-9.02-2.57-2.62-5.1-5.42-8.36-7.21-3.44-2.02-7.46-3-11.5-3.41-2.52-.41-2.6-3.51-.53-4.26,2.75-.69,5.17-2.71,6.38-5.26,0,0,1.1,2.55,1.1,2.55-7.58-3.98-11.73-1.59-18.41,2.56-.45,.27-1.02,.75-1.58,.72-.57,.05-1.21-.46-1.42-.83-.17-.21-.57-.71-.75-.92-2.82-3.31-6.32-6.73-10.77-3.82-1.27,.75-1.95,1.61-2.49,2.84-.03,.05-.07,.13-.03,.06,.1-.19,.16-.43,.18-.65,.14-1.06-.84-2.16-1.91-2.12-.03,0-.04,0,0,0h.12s.29-.02,.29-.02c3.03,.03,5.51,1.65,7.76,3.32,.87,.68,1.03,1.94,.35,2.81-.64,.83-1.81,1.01-2.68,.45h0Z"/><path class="cls-14" d="M308.8,569.95v-123.44c0-10.64,8.63-19.27,19.27-19.27h39.17"/><path class="cls-78" d="M399.91,425.36c3.91-.06,29.43-.18,32.73,0,8.1,.74,15.62,5.89,19.11,13.26,2.29,4.32,2.55,9.45,2.41,14.24,0,0,0,13.7,0,13.7-.01,17.48,.01,117.3,0,137.02,0,0,0,2,0,2h-2s-11.86,0-11.86,0h-.55s-.54-.33-.54-.33c-9.2-6.27-19.66-10.86-30.36-13.95-21.7-5.94-44.8-6.88-67.01-3.56-11.09,1.83-21.95,5.03-32.3,9.39-1.02,.43-2.19-.04-2.62-1.06-.45-1.05,.08-2.28,1.16-2.67,5.41-1.96,10.88-3.71,16.45-5.13,28.22-7.34,61.23-6.78,89.24,1.39,9.66,2.81,19.02,7.05,27.63,12.24,.01,0-1.1-.33-1.09-.33,0,0,11.86,0,11.86,0l-2,2c0-32.13,0-123.39,0-154.14,.18-7.34-3.99-14.46-10.49-17.88-3.78-2.08-8.09-2.46-12.34-2.3,0,0-27.4,.1-27.4,.1-2.61-.02-2.68-3.93-.02-4h0Z"/><path class="cls-78" d="M316.8,615.95c2.7,29.69,5.45,87.31-14.16,110.9,0,0-.61,.14-.61,.14-.02,0-.24,.09-.29,.13-.08,.04-.08,.08,.05-.08,.14-.15,.21-.64,.13-.81-.05-.17-.06-.12,.01-.04-.11-.2-.59-.47-.74-.51,3.08,.32,6.2,.15,9.32,.13,9.78-.3,19.69-.58,29.38-1.81,12.67-2.06,25.29-4.41,38.3-4.37,9.26,.3,18.21,1.74,27.29,3.36,0,0-2.36,2.24-2.36,2.24-2.14-13.81-2.3-27.79-.61-41.66,1.82-13.71,5.6-28.1,15.01-38.66,.21-.23,.56-.25,.79-.04,.2,.18,.24,.47,.11,.69-6.64,11.9-9.63,25.15-11.14,38.57-1.41,13.4-1.3,27.14-.19,40.54,0,0,.38,2.75,.38,2.75l-2.74-.51c-9.84-1.71-19.92-3.46-29.9-3.26-10,.33-20.2,1.97-30.09,3.6-6.73,1.28-13.71,1.67-20.49,2.04-7.43,.33-14.84,.75-22.3,.48-1.04-.08-2.3-.1-3.05-.99-1.99-2.23-.58-5,2.14-5.66,0,0-1.03,.66-1.03,.66,10.73-13.74,12.82-34.92,14.13-51.94,1.08-18.43,.5-37.08-1.31-55.44-.26-2.56,3.61-3.16,3.97-.45h0Z"/><path class="cls-78" d="M315.12,617.58c-13.99,13.77-45.2,41.6-66.03,36-5.89-1.75-10.73-6.72-12.32-12.66-4.99-21.27,30.45-43.98,48.32-47.62,3.6-.76,7.35-1.27,11.09-.64,.43,.07,.72,.48,.65,.92-.07,.41-.44,.69-.84,.66-17.57-.49-53.36,22.67-55.39,41.01-.76,6.26,3.82,12.33,9.74,14.04,9.93,2.39,19.97-3.21,28.59-8.14,12.01-7.39,23.11-16.59,33.35-26.38,1.87-1.82,4.66,.88,2.84,2.81h0Z"/><path class="cls-78" d="M441.39,601.9c12.53,8.29,22.92,19.78,29.93,33.06,0,0,.74,1.25,.74,1.25-6.17,4.49-12.52,8.73-18.97,12.81-5.37,3.33-10.64,6.74-16.35,9.53-.59,.26-1.35,.58-2.02,.48-1.04-.05-2.21-.87-2.72-1.34-1.62-1.44-2.7-2.85-3.84-4.31-3.27-4.29-6.14-8.85-8.92-13.43-3.67-6.1-7.14-12.3-10.31-18.66l1.07-.63c4.36,6.09,14,20.17,18.4,25.89,2.1,2.62,4.44,6.08,6.98,7.91-.26-.1-.61-.09-.88,0-.07,.03,0,0,0,0,4.49-2.16,11.75-6.86,16.16-9.4,6.06-3.64,12.14-7.26,18.33-10.7l-.57,2.18c-3.5-6.33-7.73-12.23-12.66-17.49-4.91-5.27-10.5-9.89-16.56-13.79l2.19-3.35h0Z"/><path class="cls-78" d="M268.84,620c6.23-4.78,12.54-9.45,18.97-13.99,6.62-4.54,12.89-9.11,20.26-12.61,0,0,1.47,3.72,1.47,3.72-7.03,2.73-13.88,6.96-20.46,10.83-6.7,4.05-13.32,8.24-19.86,12.56l-.37-.51h0Z"/><path class="cls-78" d="M522.28,743.9c.95,1.84,2.14,3.57,4.1,4.06,2.25,.61,5.17-.29,6.07-2.54,1.36-5.09-3.66-11.33-8.21-13.15-3.65-1.42-7.63,.07-11.49-.78-1.49-.35-2.8-1.34-3.75-2.25-2.01-1.86-3.76-4.05-4.81-6.66-7.16-12.58-14.96-26.24-22.5-39.07-7.61-13.01-15.33-25.95-23.25-38.77-.59-.94-.3-2.17,.64-2.76,.98-.62,2.31-.26,2.84,.78,3.46,6.7,7.08,13.31,10.62,19.96,10.75,19.88,21.81,39.59,33.03,59.21,.95,2.33,2.54,4.47,4.48,6.14,.99,.87,1.94,1.41,3.08,1.56,1.13,.16,2.33-.08,3.59-.35,4.14-1.26,9.02-1.74,12.89,.8,5.15,3.35,9.12,9.47,8.02,15.9-1.47,7.49-12.49,9.53-16.88,3.55-1.22-1.77-3.81-5.44-.93-6.65,.98-.34,2.04,.12,2.47,1.03h0Z"/><path class="cls-28" d="M535.03,744.31c5.77,.47,8.12,5.08,7.69,8.97-.34,3.09-3.26,5.54-6.13,6.13-4.15,.85-9.42-3.57-11.21-8.81"/><path class="cls-78" d="M442.75,654.01c15.47,25.85,30.68,51.99,45.11,78.44,.89,1.72,1.88,3.44,2.67,5.37,.3,.87,.39,1.81,.51,2.72,.25,2.02,.26,4.19-.45,6.21-1,2.73-3.02,4.86-4.35,7.17-.71,1.07-.9,3.69,.2,4.66,.42,.41,1.46,.43,2.16,.3,1.18-.2,2.51-.51,3.68-.82,2.4-.78,5.17-1.2,6.01-3.63,1.27-3.72,1.01-7.88,2.29-11.71,2.14-6.99,13.55-3.15,18.28-1.11,.96,.41,1.8,.76,2.76,1.32,.96,.57,1.28,1.81,.71,2.78-.57,.96-1.81,1.28-2.78,.71-.73-.57-1.37-1.27-2.3-1.86-3.87-2.5-9.06-5.03-13.6-3.06-.52,.35-.85,.99-1.12,1.85-.64,2.37-.55,5.13-.56,7.67,.05,1.23-.14,2.89-.4,4.23-.87,5.09-6.78,6.43-10.9,7.39-2.27,.54-4.74,.82-6.82-.84-2.94-2.51-2.93-6.97-1.21-10.06,1.55-2.87,4.2-5.15,4.25-8.38,0-1.31-.13-2.87-.47-4.16-1.24-2.64-3.52-6.65-4.97-9.3-12.03-21.44-29.6-51.97-41.99-73.61-1.47-2.16,1.65-4.55,3.29-2.28h0Z"/><path class="cls-14" d="M543.74,756.26c.84,5.68-3.57,10.54-8.43,10.55-4.59,.02-8.88-4.29-8.6-9.7"/><path class="cls-34" d="M416.34,788.26c-14.98-.09-29.96-.17-44.94-.26,.46-7.24,.91-14.48,1.37-21.73,.22-3.57,.96-7.44,1.18-11.01,0,0,4.87,.4,20.44-.39,16.58-.84,19.39-1.6,19.39-1.6l1.04,14.31,1.51,20.66Z"/><line class="cls-34" x1="373.96" y1="767.59" x2="414.83" y2="767.59"/><line class="cls-16" x1="503.83" y1="781.7" x2="545.87" y2="781.11"/><line class="cls-16" x1="503.89" y1="785.95" x2="545.93" y2="785.36"/><path class="cls-14" d="M287.4,592.43c1.42-11.59,10.28-20.79,21.39-22.47,10.01-1.52,20.73,4.94,23.8,15.83"/><path class="cls-14" d="M314.54,680.8s-15.65,12.73-15.48,52.56c.02,5.75,3.01,17.65,19.49,17.96,21.86,.41,66.09,1.66,75.01,1.91,1.11,.03,2.21,0,3.31-.13,10.27-1.1,62.54-7.72,51.55-27.21-14.81-26.27-43.83-31.21-43.83-31.21"/><path class="cls-14" d="M330.47,754.04v31.16h-35.57v-20.62c0-4.72,1.82-9.25,5.08-12.66l4.79-5"/><path class="cls-28" d="M415.68,779.25s34.49-29.8,34.24-47.97"/><line class="cls-32" x1="414.97" y1="782.26" x2="372.3" y2="782"/><polygon class="cls-16" points="377.41 449.7 377.41 456 318.94 456 318.94 449.7 362.09 449.7 362.09 451.68 368.28 451.68 368.28 449.7 377.41 449.7"/><rect class="cls-16" x="318.93" y="459.4" width="58.47" height="6.3"/><polygon class="cls-16" points="377.41 469.53 377.41 475.82 330.83 475.82 330.83 473.42 324.64 473.42 324.64 475.82 318.94 475.82 318.94 469.53 377.41 469.53"/><path class="cls-16" d="M377.81,449.7c3.86,0,6.84,3.84,6.74,7.66-.1,4.04-2.47,8.34-6.87,8.34"/><path class="cls-16" d="M318.49,459.4c-3.86,0-6.52,4.26-6.43,8.09,.1,4.04,2.47,8.34,6.87,8.34"/><path class="cls-16" d="M377.68,456c1.13,0,1.36,.61,1.45,1.36,.11,.9-.26,2.04-1.53,2.01"/><path class="cls-16" d="M318.4,465.7c-1.13,0-1.36,.69-1.45,1.55-.11,1.02,.26,2.32,1.53,2.28"/><rect class="cls-16" x="377.4" y="471.23" width="30.43" height="2.72"/><circle class="cls-16" cx="398.04" cy="472.51" r="4.43"/><line class="cls-32" x1="395.64" y1="469.45" x2="400.52" y2="475.25"/><line class="cls-32" x1="400.32" y1="469.42" x2="395.71" y2="475.67"/><line class="cls-16" x1="384.94" y1="469.79" x2="390.3" y2="469.79"/><line class="cls-16" x1="384.94" y1="475.57" x2="389.79" y2="475.57"/><rect class="cls-2" x="362.09" y="446.82" width="6.19" height="4.86"/><rect class="cls-2" x="324.64" y="473.42" width="6.19" height="4.86"/><line class="cls-2" x1="362.09" y1="446.82" x2="362.09" y2="446.34"/><circle class="cls-2" cx="415.87" cy="472.51" r="7.96"/><circle class="cls-2" cx="415.87" cy="472.51" r="5.94"/><circle class="cls-2" cx="416.04" cy="475.23" r=".58"/><polygon class="cls-78" points="415.1 474.9 412.1 471.21 412.15 471.16 415.81 474.2 415.1 474.9 415.1 474.9"/><line class="cls-23" x1="419.85" y1="469.99" x2="417.74" y2="472.51"/><line class="cls-11" x1="415.87" y1="470.54" x2="415.87" y2="467.51"/><line class="cls-36" x1="414.06" y1="472.39" x2="411.88" y2="469.53"/><rect class="cls-33" x="406.85" y="452.17" width="14.47" height="5.83" rx="2.91" ry="2.91"/><circle class="cls-33" cx="418.41" cy="455.03" r="1.07"/><circle class="cls-33" cx="409.84" cy="455.09" r="1.59"/><circle class="cls-33" cx="436.98" cy="455.09" r="1.49"/><circle class="cls-33" cx="431.98" cy="457.69" r="1.49"/><circle class="cls-33" cx="431.98" cy="463.06" r="1.49"/><circle class="cls-33" cx="431.98" cy="468.44" r="1.49"/><circle class="cls-33" cx="431.98" cy="473.82" r="1.49"/><circle class="cls-33" cx="431.98" cy="479.2" r="1.49"/><circle class="cls-33" cx="431.98" cy="484.57" r="1.49"/><circle class="cls-33" cx="436.98" cy="460.45" r="1.49"/><circle class="cls-33" cx="436.98" cy="466.04" r="1.49"/><circle class="cls-33" cx="436.98" cy="471.64" r="1.49"/><circle class="cls-33" cx="436.98" cy="477.23" r="1.49"/><circle class="cls-33" cx="436.98" cy="482.83" r="1.49"/><circle class="cls-33" cx="436.98" cy="488.43" r="1.49"/><path class="cls-33" d="M397.97,481.97c2.61,1.54,5.14,1.85,6.13,1.94"/><path class="cls-33" d="M391.9,474.27c.37,1.17,1.36,3.78,3.85,6.06"/><path class="cls-33" d="M399.03,483.56c2.19,.94,4.2,1.25,4.99,1.32"/><path class="cls-33" d="M390.79,474.27c.39,1.22,1.88,4.71,4.58,7.05,.46,.4,.95,.75,1.44,1.07"/><path class="cls-33" d="M399.03,483.56c1.98,2.79,4.01,4.73,4.99,5.12"/><path class="cls-33" d="M395.69,474.02c.02,1.26,.43,4.95,2.28,7.95"/><path class="cls-33" d="M395.75,480.33c.28,.69,.62,1.37,1.03,2.01,.01,.02,.02,.03,.03,.05"/><path class="cls-33" d="M397.97,481.97s.04,.08,.07,.12c.32,.51,.66,1,.99,1.47"/><path class="cls-33" d="M396.81,482.39c2.27,3.54,6.07,7.08,7.21,7.54"/><path class="cls-33" d="M394.43,474.27c.02,1.01,.28,3.55,1.32,6.06"/><path class="cls-33" d="M409.39,492.28h17.11c1.23,0,2.22,1,2.22,2.22h-21.45v-.11c0-1.16,.95-2.11,2.11-2.11Z"/><path class="cls-33" d="M409.39,488.69h17.11c1.23,0,2.22,1,2.22,2.22h-21.45v-.11c0-1.16,.95-2.11,2.11-2.11Z"/><path class="cls-33" d="M409.39,485.1h17.11c1.23,0,2.22,1,2.22,2.22h-21.45v-.11c0-1.16,.95-2.11,2.11-2.11Z"/><circle class="cls-33" cx="406.03" cy="451.43" r=".99"/><line class="cls-33" x1="405.41" y1="450.84" x2="406.62" y2="452.06"/><circle class="cls-33" cx="439.96" cy="451.68" r=".99"/><line class="cls-33" x1="439.34" y1="451.09" x2="440.54" y2="452.31"/><circle class="cls-33" cx="440.32" cy="494.7" r=".99"/><line class="cls-33" x1="439.7" y1="494.12" x2="440.9" y2="495.34"/><circle class="cls-33" cx="405.74" cy="494.72" r=".99"/><line class="cls-33" x1="405.13" y1="494.13" x2="406.33" y2="495.36"/><path class="cls-2" d="M361.19,502.91c1.66,.93,3.74,.94,5.43,0h.62v5.62h-14.73v-13.79h6.9c-1.46,2-1.41,4.69,0,6.61"/><path class="cls-10" d="M359.41,494.74v6.61c-1.41-1.92-1.46-4.61,0-6.61Z"/><path class="cls-10" d="M366.62,502.91c-1.69,.94-3.77,.93-5.43,0h5.43Z"/><path class="cls-2" d="M359.41,494.74c-1.46,2-1.41,4.69,0,6.61,.2,.27,.42,.53,.68,.77,.34,.31,.71,.58,1.1,.79,1.66,.93,3.74,.94,5.43,0"/><rect class="cls-2" x="352.51" y="476.6" width="6.9" height="18.15"/><rect class="cls-2" x="366.89" y="502.98" width="82.89" height="5.56"/><circle class="cls-10" cx="354.26" cy="363.36" r=".38"/><circle class="cls-10" cx="355.15" cy="365.7" r=".38"/><circle class="cls-10" cx="345.7" cy="363.74" r=".38"/><circle class="cls-10" cx="353.02" cy="366.47" r=".38"/><circle class="cls-10" cx="345.32" cy="366.3" r=".38"/><circle class="cls-10" cx="347.7" cy="366.3" r=".38"/><circle class="cls-10" cx="356.34" cy="377.49" r=".38"/><circle class="cls-10" cx="355.53" cy="379.83" r=".38"/><circle class="cls-10" cx="357.91" cy="379.15" r=".38"/><circle class="cls-10" cx="348.09" cy="379.15" r=".38"/><circle class="cls-10" cx="346.09" cy="380.43" r=".38"/><circle class="cls-10" cx="346.94" cy="382.55" r=".38"/><path class="cls-10" d="M462.04,363.36c-2.04,14.6-5.23,18.81-5.23,18.81"/><path class="cls-10" d="M464.85,363.74s-1.28,16.26-4.34,19.19"/><line class="cls-19" x1="294.89" y1="778.29" x2="332.09" y2="778.29"/><line class="cls-13" x1="294.89" y1="766.06" x2="330.47" y2="766.06"/><path class="cls-2" d="M342.51,491.11c0,1.19,.96,2.15,2.15,2.15v1.48h-26.18v-7.26h26.18v1.48c-1.19,0-2.15,.96-2.15,2.15Z"/><line class="cls-2" x1="321.3" y1="487.48" x2="321.3" y2="485.06"/><line class="cls-2" x1="324.64" y1="487.48" x2="324.64" y2="485.06"/><line class="cls-2" x1="327.73" y1="487.48" x2="327.73" y2="485.06"/><line class="cls-2" x1="330.83" y1="487.48" x2="330.83" y2="485.06"/><line class="cls-2" x1="334.21" y1="487.48" x2="334.21" y2="485.06"/><line class="cls-2" x1="338.02" y1="487.48" x2="338.02" y2="485.06"/><line class="cls-2" x1="337.77" y1="497.17" x2="337.77" y2="494.74"/><line class="cls-2" x1="334.45" y1="497.17" x2="334.45" y2="494.74"/><line class="cls-2" x1="330.83" y1="497.17" x2="330.83" y2="494.74"/><line class="cls-2" x1="327.73" y1="497.17" x2="327.73" y2="494.74"/><line class="cls-2" x1="324.64" y1="497.36" x2="324.64" y2="494.94"/><line class="cls-2" x1="321.55" y1="505.45" x2="321.55" y2="494.94"/><circle class="cls-2" cx="322.21" cy="490.22" r=".9"/><line class="cls-2" x1="318.48" y1="485.06" x2="325.19" y2="485.06"/><line class="cls-2" x1="327.24" y1="497.17" x2="331.23" y2="497.17"/><circle class="cls-2" cx="363.14" cy="498.6" r="2.75"/><polygon class="cls-2" points="364.28 499.29 363.47 499.26 362.99 499.91 362.76 499.13 361.99 498.87 362.67 498.42 362.68 497.61 363.31 498.11 364.09 497.86 363.81 498.63 364.28 499.29"/><path class="cls-2" d="M444.81,509.06h4.98v22.6h0c-2.75,0-4.98-2.23-4.98-4.98v-17.62h0Z"/><line class="cls-35" x1="334.21" y1="485.32" x2="334.21" y2="478.89"/><line class="cls-35" x1="352.13" y1="479.26" x2="333.87" y2="479.26"/><line class="cls-35" x1="337.19" y1="497.17" x2="352.13" y2="497.17"/><circle class="cls-35" cx="433.58" cy="519.03" r="5.75"/><line class="cls-35" x1="436.85" y1="514.3" x2="436.85" y2="508.53"/><line class="cls-35" x1="430.21" y1="514.38" x2="430.21" y2="508.62"/><circle class="cls-35" cx="433.58" cy="519.03" r="3.79"/><line class="cls-35" x1="438.98" y1="516.43" x2="444.6" y2="516.43"/><line class="cls-35" x1="438.71" y1="521.63" x2="444.6" y2="521.63"/><line class="cls-35" x1="439.33" y1="517.62" x2="444.6" y2="517.62"/><line class="cls-35" x1="439.33" y1="520.59" x2="444.6" y2="520.59"/><line class="cls-35" x1="431.44" y1="508.87" x2="431.44" y2="513.67"/><line class="cls-35" x1="435.36" y1="508.87" x2="435.36" y2="513.52"/><path class="cls-35" d="M446.28,510.4h3.67v18.93h0c-2.03,0-3.67-1.64-3.67-3.67v-15.26h0Z"/><rect class="cls-35" x="442.57" y="457.77" width="3.06" height="7.38"/><rect class="cls-35" x="442.57" y="467.95" width="3.06" height="7.38"/><rect class="cls-35" x="445.89" y="458.96" width="4.28" height="1.49"/><rect class="cls-35" x="445.89" y="463.06" width="4.28" height="1.49"/><rect class="cls-35" x="445.89" y="470.89" width="4.28" height="1.49"/><rect class="cls-35" x="418.79" y="498.55" width="9.93" height="3.96"/><line class="cls-35" x1="422.05" y1="496.68" x2="422.05" y2="498.55"/><line class="cls-35" x1="426.01" y1="496.68" x2="426.01" y2="498.55"/><path class="cls-2" d="M235.3,781.86c-.3,2.78-1.32,4.82-2.54,4.82-1.46,0-2.64-2.9-2.64-6.48s1.18-6.47,2.64-6.47c1.19,0,2.2,1.95,2.52,4.62l-2.52-.21,.18,4.13,2.36-.41Z"/><polygon class="cls-2" points="248.74 779.5 235.3 781.86 232.94 782.27 232.76 778.14 235.28 778.35 248.74 779.5"/><path class="cls-2" d="M250.48,781.49c2.74-.54,4.99-.18,5.36,.99,.44,1.39-1.98,3.39-5.4,4.45s-6.53,.8-6.96-.59c-.36-1.14,1.2-2.68,3.66-3.78l.55,2.47,3.89-1.4-1.1-2.13Z"/><polygon class="cls-2" points="244.22 769.36 250.48 781.49 251.57 783.62 247.69 785.02 247.13 782.55 244.22 769.36"/><rect class="cls-2" x="315.5" y="505.76" width="26.29" height="56.67"/><rect class="cls-2" x="318.93" y="510.4" width="20.05" height="7.21"/><rect class="cls-2" x="320.76" y="511.78" width="2.23" height="4.34"/><rect class="cls-2" x="324.97" y="511.78" width="2.23" height="4.34"/><rect class="cls-2" x="329.69" y="511.78" width="2.23" height="4.34"/><rect class="cls-2" x="334.41" y="511.78" width="2.23" height="4.34"/><line class="cls-2" x1="319.86" y1="513.4" x2="323.88" y2="513.4"/><line class="cls-2" x1="324.07" y1="514.68" x2="328.1" y2="514.68"/><line class="cls-2" x1="328.8" y1="513.24" x2="332.82" y2="513.24"/><line class="cls-2" x1="333.52" y1="514.68" x2="337.54" y2="514.68"/><line class="cls-13" x1="337.54" y1="524.34" x2="337.54" y2="542.15"/><line class="cls-2" x1="318.93" y1="476.04" x2="318.93" y2="485.06"/><line class="cls-19" x1="423.62" y1="587.32" x2="451.08" y2="587.32"/><line class="cls-2" x1="425.78" y1="581.08" x2="451.08" y2="581.08"/><line class="cls-2" x1="426.68" y1="576.13" x2="451.98" y2="576.13"/><line class="cls-19" x1="426.43" y1="594.8" x2="453.37" y2="594.8"/><line class="cls-19" x1="438.98" y1="576.12" x2="438.98" y2="564.93"/><line class="cls-19" x1="438.98" y1="587.31" x2="438.98" y2="581.08"/><line class="cls-19" x1="446.28" y1="576.12" x2="446.28" y2="564.93"/><line class="cls-19" x1="446.28" y1="587.31" x2="446.28" y2="581.08"/><line class="cls-19" x1="446.28" y1="602.19" x2="446.28" y2="594.8"/><line class="cls-19" x1="438.98" y1="602.19" x2="438.98" y2="594.8"/><path class="cls-2" d="M448.25,564.93h-12.89c-.17-5.02,5.77-12.89,12.89-12.89h0v12.89Z"/><line class="cls-2" x1="448.67" y1="553.33" x2="450.81" y2="553.3"/><line class="cls-2" x1="448.54" y1="557.67" x2="451.26" y2="557.67"/><line class="cls-2" x1="448.54" y1="561.09" x2="450.9" y2="561.09"/><line class="cls-2" x1="448.38" y1="564.21" x2="451.26" y2="564.21"/><path class="cls-2" d="M332.74,565.66h8.33v9.4h-2.04c-3.47,0-6.29-2.82-6.29-6.29v-3.11h0Z"/><line class="cls-35" x1="334.45" y1="562.62" x2="334.45" y2="565.17"/><line class="cls-35" x1="339.65" y1="562.62" x2="339.65" y2="565.49"/><line class="cls-35" x1="341.53" y1="567.34" x2="345.74" y2="567.34"/><line class="cls-35" x1="341.06" y1="573.96" x2="346.86" y2="573.96"/><path class="cls-35" d="M320.91,556.74h15.93c1.55,0,2.81,1.26,2.81,2.81h-21.54c0-1.55,1.26-2.81,2.81-2.81Z"/><circle class="cls-35" cx="337.54" cy="545.08" r="1.9"/><rect class="cls-33" x="337.11" y="543.91" width=".87" height="2.35"/><rect class="cls-16" x="426.01" y="533.25" width="11.36" height="8.03" rx="2.44" ry="2.44"/><line class="cls-16" x1="431.91" y1="524.89" x2="431.91" y2="533.25"/><line class="cls-16" x1="437.91" y1="537.53" x2="450.51" y2="537.53"/><circle class="cls-16" cx="431.91" cy="537.53" r="2.17"/><line class="cls-16" x1="447.3" y1="537.53" x2="447.3" y2="534.94"/><line class="cls-16" x1="450.98" y1="534.94" x2="447.3" y2="534.94"/><line class="cls-16" x1="410.6" y1="497.17" x2="410.6" y2="502.51"/><line class="cls-16" x1="414.23" y1="497.17" x2="414.23" y2="502.51"/><line class="cls-16" x1="414.23" y1="509" x2="414.23" y2="525.66"/><line class="cls-16" x1="410.6" y1="508.53" x2="410.6" y2="525.19"/><polygon class="cls-16" points="210.72 748.68 205.97 750.19 188.01 755.91 164.44 755.91 163.92 754.29 177.24 750.05 208.03 740.25 210.72 748.68"/><path class="cls-16" d="M91.75,755.91c.7-2.55,2.25-4.74,4.32-6.26,1.93-1.43,4.32-2.27,6.91-2.27s5.05,.87,7,2.34c.94,.7,1.76,1.54,2.45,2.49"/><path class="cls-16" d="M128.77,755.91c-2.04-3.36-5.74-5.6-9.96-5.6-2.36,0-4.54,.7-6.38,1.9-1.45,.95-2.68,2.22-3.58,3.7"/><path class="cls-2" d="M349.06,374.1l2.2-4.55c.09-.19,.32-.27,.51-.18l.83,.4"/><path class="cls-2" d="M347.98,372.7l-2.77-3.6-2.39-3.1c-.38-.5-.57-1.09-.57-1.67,0-.82,.37-1.62,1.06-2.15,1.19-.92,2.9-.7,3.82,.49l3.5,4.55"/><line class="cls-2" x1="353.51" y1="370.96" x2="350.87" y2="376.44"/><path class="cls-2" d="M354.35,372.04l4.62,6c.92,1.19,.7,2.9-.49,3.82s-2.9,.7-3.82-.49l-2.96-3.84"/><path class="cls-2" d="M356.29,361.74c-.38-.18-.78-.27-1.18-.27-1.01,0-1.98,.56-2.45,1.54l-2.03,4.21-.91,1.89-1.74,3.59-3.75,7.79c-.66,1.35-.09,2.98,1.27,3.63,1.35,.66,2.98,.09,3.63-1.27l2.57-5.32,2.65-5.49,1.4-2.91,1.81-3.75c.66-1.36,.09-2.99-1.27-3.64Zm-2.78,9.22l-2.64,5.48-.34,.7c-.09,.19-.32,.27-.51,.17l-1.69-.81c-.19-.09-.27-.32-.18-.51l.91-1.89,2.2-4.55c.09-.19,.32-.27,.51-.18l.83,.4"/><path class="cls-35" d="M353.51,370.96l.13-.27c.09-.19,.01-.41-.18-.5l-.86-.42"/><path class="cls-2" d="M306.92,555.15c10.44-4.37,28.51-17.98,43.4-35.38,1.63-1.9,5.17-6.62,8.23-11.6"/><path class="cls-2" d="M310.77,538.94c10.1-5.45,24.48-14.78,38.17-30,10.65-11.84,17.77-24.09,22.18-33.11"/><path class="cls-2" d="M310.51,543.91c10.44-4.37,28.51-17.98,43.4-35.38,10.45-12.22,18.22-23.78,21.48-32.71"/><path class="cls-2" d="M307.68,560.75c10.44-4.37,27.29-19.7,42.95-36.41,15.53-16.56,27.35-50.86,30.6-59.79"/></g></svg>